<svg width="365" height="90" fill="none" xmlns="http://www.w3.org/2000/svg"><path d="M33.346 30.45l-9.849.141a10.808 10.808 0 00-1.066-3.405 48.359 48.359 0 01-2.459-4.499c-.61-1.415-.9-2.947-.85-4.487.014-.353.065-.704.153-1.047a6.435 6.435 0 012.202-3.34 10.077 10.077 0 013.314-1.843c1.458-.503 2.085-.644 2.085-.644a.445.445 0 01.41-.222.763.763 0 01.245 0c.217-.082.247-.181.446-.293a.95.95 0 01.737 0c.193.046.393.046.586 0 .163-.035.323-.08.48-.134.217 0 .34.094.515.34.49.862.87 1.782 1.136 2.737.284.892.503 1.803.656 2.726.428-.07.72-.093.832-.105a.492.492 0 010-.228c.047-.152.193-.222.187-.293-.006-.07-.03-.263-.03-.415 0-.152.194-.146.317-.111.17-.1.105-.152 0-.34a.42.42 0 01.07-.48c.082-.099.041-.198-.076-.339a2.005 2.005 0 01-.193-.819c0-.21.228-.304.298-.304a1.846 1.846 0 000-.368c0-.14.123-.316.123-.404 0-.088-.228-.27-.322-.497-.093-.228.13-.38.252-.416-.005-.23.014-.459.059-.684.047-.123.421-.094.585-.082-.398-.123-.638-.351-.638-.65a.52.52 0 01.07-.274.533.533 0 01-.447-.81.504.504 0 01.225-.19.533.533 0 01-.428-.516.502.502 0 01.445-.52.527.527 0 01.252-1 3.906 3.906 0 01-.082-.404.52.52 0 01.486-.521l.164-.585c.07-.287.24-1.755.258-1.954.017-.199-.27-.146-.515-.105-.246.04-.832.31-.914.327a10.69 10.69 0 01-.111-1.755c.105-.251.205-.257.433-.117.323.136.661.232 1.007.287.123 0 .076-.193 0-.462a9.394 9.394 0 00-.48-1.1C33.838.11 33.85-.006 33.99 0h2.15c.17 0 .105.094 0 .27-.106.175-.37 1.298-.416 1.427.412.013.822-.065 1.2-.228.14-.059.281 0 .281.158l-.035 1.556c0 .245-.088.24-.305.14-.216-.1-.814-.298-1-.374a1.87 1.87 0 00-.153 1.246c.052.509.14 1.053.181 1.299a.498.498 0 01.486.526.583.583 0 01-.046.228.51.51 0 01.544.527.492.492 0 01-.146.368.504.504 0 01.345.503.52.52 0 01-.158.387.538.538 0 01-.111.93c.09.101.138.233.134.368a.503.503 0 01-.486.521.584.584 0 01.088.304.543.543 0 01-.134.363c.398.094.468.38.398.526-.07.147-.193.27-.182.375.012.105.164.34.164.421 0 .082-.076.158-.093.24-.018.082.193.363.146.55a1.497 1.497 0 01-.234.421c-.041.059.14.158.246.199.105.04.117.462 0 .714-.117.251-.328.433-.34.526.293.065.498.182.357.421-.14.24-.322.363-.41.585-.087.223-.228.229 0 .229.229 0 .527-.094.557.163.036.18.118.348.24.486l.503.134c.2-.52.674-2.246 1.066-3.38a7.52 7.52 0 011.118-2.341.79.79 0 01.252-.14.72.72 0 01.469.07c.107.037.22.055.333.053a.674.674 0 01.633-.264.81.81 0 01.703.398 1.3 1.3 0 01.62.187c.51.14 1.009.317 1.493.527 1.635.599 3.156 1.471 4.497 2.58a5.177 5.177 0 011.81 2.925c.128.67.18 1.353.158 2.036a11.36 11.36 0 01-1.874 5.674 20.48 20.48 0 00-1.651 2.925c-.372.91-.644 1.858-.814 2.826a.55.55 0 01-.223 1.047 8.976 8.976 0 00-.087.732c-.012.146 0 .62 0 .825a.528.528 0 01.035 1.047.487.487 0 01-.434-.252.503.503 0 01-.802-.205.475.475 0 01-.421.228.515.515 0 01-.51-.473.474.474 0 01-.486.398.498.498 0 01-.486-.38.48.48 0 01-.445.274.504.504 0 01-.492-.386.474.474 0 01-.468.328.498.498 0 01-.451-.281.48.48 0 01-.428.228.503.503 0 00-.872-.04.498.498 0 01-.463-.3.475.475 0 01-.415.217.493.493 0 01-.457-.292.557.557 0 01-.996-.111.509.509 0 01-.527.386.539.539 0 01-.556-.515.502.502 0 01-.539.515.539.539 0 01-.585-.515.502.502 0 01-.539.515.533.533 0 01-.544-.515.54.54 0 01-.586.515.527.527 0 01-.544-.474.502.502 0 01-.533.474.54.54 0 01-.498-.299.514.514 0 01-.48.287.55.55 0 01-.504-.316.462.462 0 01-.462.345.48.48 0 01-.451-.298.468.468 0 01-.463.333.486.486 0 01-.457-.316.462.462 0 01-.468.38.48.48 0 01-.445-.286.469.469 0 01-.469.357.493.493 0 01-.462-.34.474.474 0 01-.48.422.492.492 0 01-.44-.275.468.468 0 01-.474.386.504.504 0 01-.427-.24.468.468 0 01-.469.374.473.473 0 01-.398-.21.468.468 0 01-.45.292.474.474 0 01-.428-.257.439.439 0 01-.428.345.487.487 0 01-.51-.474.643.643 0 01.311-.532l.047-.843.053-.748a.551.551 0 01-.327-.881.539.539 0 01.31-.19l9.848-.14h.047z" fill="#975900"/><path fill-rule="evenodd" clip-rule="evenodd" d="M34.28 5.798c.047-.21.234-1.17.316-1.755.056-.324.078-.654.064-.983 0-.093-.105-.187-.468-.134a7.919 7.919 0 00-.902.216c-.076 0-.176.059-.164-.123.012-.181.04-1.17.04-1.234 0-.065.16 0 .212 0 .325.125.66.22 1.001.286.147 0 .34-.04.299-.204-.1-.479-.234-.95-.398-1.41-.1-.117-.047-.123.082-.123h1.47c.093 0 .111 0 .047.152-.15.417-.266.846-.346 1.281-.041.264 0 .363.176.363.314-.045.624-.117.925-.216.17-.065.346-.14.346 0v1.17c0 .128-.088.128-.217.046a4.162 4.162 0 00-.79-.228c-.212-.052-.44-.076-.47.106-.015.442-.005.886.03 1.328.041.526.117 1.053.146 1.24h-.1a.181.181 0 00-.07.04.497.497 0 00-.515-.374.521.521 0 00-.544.527.387.387 0 000 .146.65.65 0 00-.159-.07l-.011-.047z" fill="#EEC763"/><path fill-rule="evenodd" clip-rule="evenodd" d="M36.002 6.851a.386.386 0 11.772 0 .386.386 0 01-.772 0zm.194.854a.386.386 0 01.392-.386.387.387 0 11-.275.66.392.392 0 01-.117-.274zm.053.849a.386.386 0 11.771 0 .386.386 0 01-.772 0zm-.159.865a.386.386 0 01.387-.386.393.393 0 010 .778.388.388 0 01-.387-.392zm-.38.784a.392.392 0 01.779 0 .392.392 0 01-.78 0zm-.586.521a.386.386 0 10.772 0 .386.386 0 00-.772 0zm-.82 0a.386.386 0 11.772 0 .386.386 0 01-.772 0zm-.609-.69a.386.386 0 10.772 0 .386.386 0 00-.772 0zm-.416-.82a.386.386 0 11.771 0 .386.386 0 01-.77 0zm-.17-.976a.386.386 0 01.766-.076.386.386 0 01-.736.223.386.386 0 01-.03-.147zm.17-1a.386.386 0 11.387.385.393.393 0 01-.387-.386zm.475-.937a.386.386 0 11.772 0 .386.386 0 01-.772 0zm1.716-.204a.386.386 0 10.772 0 .386.386 0 00-.772 0zm-.873-.346a.386.386 0 11.386.386.393.393 0 01-.386-.386z" fill="#EEC763"/><path d="M34.074 8.208c0-1.006.457-1.82 1.02-1.82.562 0 1.018.814 1.018 1.82 0 1.006-.456 1.82-1.019 1.82-.562 0-1.019-.814-1.019-1.82z" fill="#EEC763"/><path fill-rule="evenodd" clip-rule="evenodd" d="M38.118 16.556c.191-.987.433-1.963.726-2.925.364-1.059.978-2.732 1.242-2.615.263.117 0 2.533-.24 3.616-.24 1.082-.498 2.34-.498 2.34l-1.23-.416zm-6.2 0s-.37-1.878-.727-2.925-.978-2.732-1.241-2.615c-.264.117 0 2.533.24 3.616.24 1.082.497 2.34.497 2.34l1.23-.416zM42.774 11.344c0-.187-.345-.293-.416-.176.282 2.621-.269 6.436-1.926 10.952l.281.526c1.897-4.96 2.541-8.816 2.061-11.302zm-15.81.04a.287.287 0 01.351-.105c-.281 2.621.406 6.202 2.061 10.741l-.28.527c-1.898-4.961-2.609-8.682-2.132-11.162z" fill="#EEC763"/><path fill-rule="evenodd" clip-rule="evenodd" d="M36.622 2.211v.182l-.492.07.492.076v.258s-1.014-.205-1.014-.328c0-.123 1.014-.258 1.014-.258zm-3.169.55v-.18l.586-.065-.586-.082V2.21s1.171.205 1.171.328c0 .123-1.17.246-1.17.246V2.76zm1.857 2.34h-.164l-.117-.72-.088.72h-.205c.049-.686.159-1.368.328-2.035.123 0 .246 2.035.246 2.035zm-.533-4.41h.181l.07.584.077-.585h.246s-.205 1.17-.328 1.17c-.123 0-.246-1.17-.246-1.17z" fill="#975900"/><path fill-rule="evenodd" clip-rule="evenodd" d="M37.205 24.033c.154.11.28.255.37.421.218.354.347.756.374 1.17v.72c.25-.225.432-.518.521-.842.042-.55.01-1.103-.094-1.644-.076-.223-.1-.422.1-.445.199-.023.422-.123.62.076.235.27.391.6.452.954.017.153.05.304.099.45.117-.5.162-1.014.135-1.527a2.555 2.555 0 01-.082-1.1c.07-.175.222-.374.322-.374.126.02.25.053.369.1 0 0 1.17-3.85 1.44-5.108.305-1.862.454-3.747.445-5.634l-1.756-.35c.093.584-.094 2.732-.791 5.68a36.402 36.402 0 01-2.524 7.453zM27.637 11.31l2.038-.298c-.14.637.234 3.755.831 6.172.62 2.503 2.296 6.82 2.296 6.82a2.604 2.604 0 00-.756.79 5.739 5.739 0 00-.064 1.522 4.5 4.5 0 01-.545-1.37c0-.42.299-.965.299-1.263 0-.298-.123-.585-.299-.585-.175 0-.679 0-.779.21-.09.209-.168.422-.234.638l-.064.585a9.982 9.982 0 01-.135-1.07v-1.34a.457.457 0 00-.275-.322c-.076 0-.334.047-.334.047a37.068 37.068 0 01-1.815-6.581 20.908 20.908 0 01-.188-3.955h.024z" fill="#EEC763"/><path d="M29.335 21.242a.737.737 0 00-.345-1.287.696.696 0 01.199-.497.739.739 0 01-.645-.731c0-.158.051-.313.147-.439a.738.738 0 01-.433-.667.749.749 0 01.234-.538.656.656 0 01-.55-.643.672.672 0 01.151-.422.656.656 0 01-.316-.843.636.636 0 01.153-.216.65.65 0 01.058-1.053.668.668 0 01-.306-.846.638.638 0 01.154-.218.669.669 0 01-.27-.533.65.65 0 01.176-.45.655.655 0 111.2-.369.649.649 0 01-.18.445.659.659 0 01-.094.854.65.65 0 010 1.076.673.673 0 01.363.585.656.656 0 01-.205.474.66.66 0 01.082.925.65.65 0 01.193 1.04.739.739 0 01.656.732c0 .159-.05.313-.147.439a.732.732 0 01.229 1.17.739.739 0 01.644.726.75.75 0 01-.264.585.732.732 0 01.586.72c0 .17-.058.334-.164.467a.738.738 0 01-1.306-.468v-.018z" fill="#975900"/><path fill-rule="evenodd" clip-rule="evenodd" d="M28.785 11.438a.532.532 0 01-.135.345.62.62 0 00-.41-.158.586.586 0 00-.375.129.51.51 0 01.04-.68.516.516 0 01.88.364zM27.727 12.297a.515.515 0 011.024 0 .497.497 0 01-.164.38.585.585 0 00-.286-.075.622.622 0 00-.358.117.502.502 0 01-.216-.422zM28.816 13.28a.515.515 0 01-.275.45.586.586 0 00-.433.023.515.515 0 11.708-.473zM28.852 14.415a.51.51 0 01-.187.398.586.586 0 00-.246-.053.587.587 0 00-.334.1.51.51 0 01-.258-.445.517.517 0 01.722-.525.515.515 0 01.303.525zM27.883 15.415a.514.514 0 111.028 0 .514.514 0 01-1.028 0z" fill="#EEC763"/><path fill-rule="evenodd" clip-rule="evenodd" d="M28.082 16.41a.515.515 0 111.03 0 .515.515 0 01-1.03 0zM29.593 17.58c0 .15-.06.295-.164.404h-.123c-.17 0-.333.06-.463.17a.586.586 0 11.75-.586v.012z" fill="#EEC763"/><path fill-rule="evenodd" clip-rule="evenodd" d="M28.688 18.68a.585.585 0 111.17 0 .585.585 0 01-1.17 0zM29.125 19.914a.585.585 0 111.17 0 .585.585 0 01-1.17 0zM29.484 21.236a.584.584 0 011-.413.585.585 0 11-1 .413zM30.023 22.412a.585.585 0 111.171 0 .585.585 0 01-1.17 0z" fill="#EEC763"/><path d="M40.3 17.258a.684.684 0 01.55-.672 1.292 1.292 0 00-.046-1.726.643.643 0 01.415-.585 1.466 1.466 0 00-.164-1.603.655.655 0 00.065-.854V11.7a.584.584 0 01-.106-.351.655.655 0 011.312 0v.117a.585.585 0 01.106.35.654.654 0 01-.194.469c.088.109.134.246.13.386a.656.656 0 00-.06 1.105.656.656 0 00-.193 1.106.66.66 0 01-.527.644.668.668 0 01.31.555.66.66 0 01-.509.638.713.713 0 01.287.585.69.69 0 01-1.199.529.69.69 0 01-.177-.529v-.047zm-1.423 4.3a.765.765 0 01-.475 1.2.76.76 0 001.523 0 .743.743 0 00-.146-.451.767.767 0 00.513-1.142.756.756 0 00-.297-.28c.06.006.122.006.182 0a.762.762 0 00.304-1.456h.106a.756.756 0 10-.31-.065h-.1a.762.762 0 00-.357 1.434.966.966 0 00-.182 0 .767.767 0 00-.761.766v-.006z" fill="#975900"/><path fill-rule="evenodd" clip-rule="evenodd" d="M38.602 22.77a.602.602 0 111.204 0 .602.602 0 01-1.204 0zM39.059 21.518a.584.584 0 011-.414.585.585 0 11-1 .414zM39.578 20.113a.585.585 0 111.17 0 .585.585 0 01-1.17 0zM39.977 18.656a.584.584 0 011-.413.585.585 0 11-1 .413zM40.719 16.07a.514.514 0 111.029 0 .514.514 0 01-1.03 0zM40.469 17.235a.537.537 0 01.644-.528.539.539 0 11-.644.528zM40.973 14.854a.515.515 0 111.03 0 .515.515 0 01-1.03 0z" fill="#EEC763"/><path fill-rule="evenodd" clip-rule="evenodd" d="M41.137 13.777a.515.515 0 111.03 0 .515.515 0 01-1.03 0zM42.242 12.678a.503.503 0 01-.293.462.643.643 0 00-.515-.04.503.503 0 01-.223-.422.515.515 0 011.03 0z" fill="#EEC763"/><path fill-rule="evenodd" clip-rule="evenodd" d="M41.305 11.841a.509.509 0 01.51-.515.516.516 0 01.52.515c0 .12-.044.237-.123.328a.622.622 0 00-.456-.205.628.628 0 00-.381.134.485.485 0 01-.07-.257z" fill="#EEC763"/><path fill-rule="evenodd" clip-rule="evenodd" d="M41.692 10.83a.51.51 0 01.51.473.587.587 0 00-.434-.176.615.615 0 00-.586.38.524.524 0 010-.163.508.508 0 01.516-.515h-.006zM32.196 30.55l1.633-1 .586.339-1.722 1.059-.515-.398h.018zm8.994-3.914a10.97 10.97 0 011.171-.199c.279.025.555.072.826.14a3.182 3.182 0 00-.884-.24 9.09 9.09 0 00-1.095.299h-.018zm-2.928 1.2a10.203 10.203 0 011.64-.381c.613.076 1.221.19 1.82.34a5.99 5.99 0 00-1.82-.463 6.41 6.41 0 00-1.64.503zm4.158-2.34c.338-.11.684-.19 1.036-.24.298.025.593.072.884.14a2.19 2.19 0 00-.901-.258 5.46 5.46 0 00-1.02.357zm-1.482.38a15.92 15.92 0 001.704-.978c.432-.34.892-.641 1.376-.9a5.343 5.343 0 011.136-.34 7.891 7.891 0 00-1.873.942c-.585.441-1.206.833-1.857 1.17-.16.049-.322.088-.486.117v-.012zm1.821-1.978a.358.358 0 00.223-.082L44 22.687c.146-.158 1.563-1.217 1.563-1.217-.58.304-1.13.665-1.64 1.077-.321.357-1.17 1.357-1.17 1.357l.005-.006zm-7.735 4.932s1.317-.936 1.557-1.539c.24-.602.082-2.533.06-2.755-.024-.223-.048-.223.122-.258.351-.07.586.24.72.661.115.43.163.873.14 1.317a4.563 4.563 0 01-.222.994c.43-.413.794-.89 1.078-1.416a5.53 5.53 0 00.181-1.538c-.076-.24-.34-.585-.24-.655a.451.451 0 01.539.099c.194.379.31.793.34 1.217 0 .181-.117.96-.117.96.293-.327.506-.718.62-1.141a7.648 7.648 0 00.117-1.756c-.076-.42-.28-.819 0-.9.281-.082.498.339.621.86.08.637.017 1.284-.181 1.895l-.48 1.059s.901-1.357 1.223-1.995c.322-.638.814-1.755 1.411-2.235.598-.48.703-.643.984-.643.234.019.463.074.68.163-.412.272-.783.601-1.101.977-.399.521-.697 1.17-.879 1.416l-.744 1.06a8.338 8.338 0 001.043-1.171 6.694 6.694 0 011.259-1.679 3.071 3.071 0 011.598-.585c.265.034.518.13.738.28a3.514 3.514 0 00-1.112.639c-.387.38-1.382 1.497-1.822 1.819a12.5 12.5 0 00-1.135 1.018c.409-.238.8-.506 1.17-.802.493-.415.856-.836 1.336-.86.498.045.988.153 1.458.322a1.757 1.757 0 00-.896.223c-.382.29-.792.543-1.224.754-.204.082-.4.184-.585.304.3-.07.613-.083.919-.04.222.099.398.719.398.719a3.071 3.071 0 00-1.856.14c-.843.398-3.28 1.317-3.28 1.317s1.915-.661 2.243-.743c.328-.082 1.236-.258 1.476 0 .15.177.227.405.217.637a4.46 4.46 0 00-1.535-.216c-.367.082-.723.21-1.06.38 0 0 .879-.064 1.02.059.164.248.254.538.257.836-.035.1-.158-.058-.738-.158-.712-.2-1.466-.2-2.178 0-.779.304-3.437 1.48-3.437 1.48l-.662-.48-.041-.04zm1.704 1.544s-2.758-1.96-3.162-2.703c-.463-.836-.79-2.498-.586-2.843.205-.345.205-.55 0-.55s-.644.24-.808.954a3.12 3.12 0 00.229 1.614c.11.263.2.535.263.814a7.502 7.502 0 01-1.277-1.533 3.507 3.507 0 01-.17-1.89c.516-.895.258-.9-.058-.942a.99.99 0 00-.503.445 3.504 3.504 0 00-.135 1.316 3.6 3.6 0 01.058.638 5.26 5.26 0 01-.62-1.457c-.059-.52.117-1.655.04-1.983-.046-.199-.263-.322-.433-.088a3.092 3.092 0 00-.293 1.387c.054.638.242 1.258.55 1.82.35.492.727.965 1.131 1.415a9.79 9.79 0 01-2.202-2.627c-.632-1.328-1.346-2.55-1.873-2.878-.703-.433-1.312-.492-1.459-.14.53.292 1.011.667 1.423 1.111.375.52 1.388 2.135 1.388 2.135 0 .13-.105.123-.293 0a14.16 14.16 0 00-1.698-2.433c-.351-.293-1.247-.907-1.756-.884-.51.024-.768.152-.586.322a14.11 14.11 0 011.58 1.17c.41.55.853 1.071 1.33 1.562l1.218.924s-.181.123-.984-.397c-.45-.475-.93-.923-1.434-1.34-.281-.158-1.564-.287-1.447.234.117.52.767.433 1.142.585.375.152 1.306.72 1.306.72s-1.323-.047-1.505.204c-.416.585-.088.75-.088.75.238-.185.526-.295.826-.317.864.145 1.718.34 2.559.585a6.996 6.996 0 00-1.815-.07c-.264.14-.48.585-.27.708.094.047.521-.293.955-.293.63.095 1.25.24 1.856.433-.372.053-.733.17-1.066.346a.884.884 0 00-.21.52 14.386 14.386 0 011.575-.117c1.095.157 2.157.49 3.144.989.522.316 3.806 2.135 3.806 2.135l.346-.404.006.053z" fill="#EEC763"/><path fill-rule="evenodd" clip-rule="evenodd" d="M34.56 22.916c0 .04.257.07.468.07.212.02.426.02.638 0 .082-.035.135-.129.082-.146a1.547 1.547 0 00-.357 0h-.75a.07.07 0 00-.082.07v.006zm-.458 1.585a.181.181 0 00.1.146c.094.065.094 0 .117-.046.023-.047-.053-.211-.053-.211l.041-.82c0-.11-.04-.409-.04-.479s.04-.134.029-.187c-.012-.053-.135-.041-.158.03-.024.07-.036 1.567-.036 1.567zm.978-4.095h.211c0 .485 0 1.17.03 1.205.064-.36.101-.723.11-1.088v-.655c0-.082-.163-.223-.163-.223a1.902 1.902 0 00-.504-.07c-.181 0-.181.111-.24.21-.03.232-.03.466 0 .697l.035.111a.455.455 0 00.041-.152l.299-.035v.316a.176.176 0 00.1-.07c.009-.082.009-.165 0-.246h.081zm.621-.55s0-.1.065-.07c.064.029.158.058.17.11.011.054-.036.586-.03.75.006.406.034.813.082 1.217.053.099-.04.327 0 .368.042.036.082.075.117.117 0 0-.082.094-.14.082-.059-.012-.838.03-.99.03a2.934 2.934 0 01-.527-.118s0-.082.035-.082c.166.045.334.078.504.1.217.015.436.001.65-.041.1-.047.205-.146.205-.187 0-.041.07-.112 0-.129-.07-.018-.176.1-.234.117-.21.034-.421.052-.633.053-.24 0-.527-.065-.55-.14-.024-.077-.041-.17.04-.17.082 0 .17.099.364.117.231.028.465.028.697 0 .046-.03.087-.082.087-.211l.065-1.895.023-.018zm-1.622-.164c-.02.093-.033.187-.041.28v1.72c0 .364.053.34.082.381.03.041.129-.134.129-.134v-1.913a.917.917 0 00-.1-.334.053.053 0 00-.04-.02.053.053 0 00-.042.02h.012zm1.283-.755s.374.51.445.585c.07.077-.1.158-.147.14a2.926 2.926 0 01-.45-.62c0-.081.152-.099.152-.099v-.006zm-1.113.48a.874.874 0 01.1-.152l.187-.21a.328.328 0 00.04-.217 1.2 1.2 0 00-.128-.24c0-.04.129-.052.129-.052s.21.04.34.052h.445c.105 0 .093.07.105.152.012.082-.55 0-.627 0h-.1a.62.62 0 010 .27 5.973 5.973 0 01-.362.473c-.047.047-.117-.11-.117-.11l-.012.034zm1.581-3.089s-.053.55-.053.673-.058.784-.07.825c-.012.04-.047.199-.129.24a.21.21 0 00-.1.14s.34-.07.3 0a.673.673 0 01-.217.181c-.053 0 0 .053-.211-.029a1.235 1.235 0 00-.41-.082l-.37-.029c-.151 0-.18-.047-.233 0-.053.047.04.1.093.129.156.048.318.077.48.088a2.34 2.34 0 01.457 0c.053.029.293.093.352.052.058-.04.228-.07.27-.17a.767.767 0 00.058-.292c0-.088-.03-.24-.03-.357v-.48c.002-.157.022-.314.06-.467l.087-.293c0-.059.035-.146-.059-.146-.093 0-.146.187-.14.24a4.683 4.683 0 01-.053.555v.462c0 .123-.07.357-.07.229v-.44c.009-.144.026-.289.053-.432.008-.105.008-.21 0-.316v-.269-.1l-.06.106-.005-.018zm-1.171.375l.035-.38a.363.363 0 01.129-.211l.328-.03c.1 0 .298 0 .328.082.029.082-.059.047-.117.076a1.415 1.415 0 01-.352 0c-.07 0-.14.1-.175.17-.036.07.134 0 .228 0a.83.83 0 01.369.082c.058.035.07.158.058.304l-.076.773c-.02-.13-.034-.261-.04-.392a3.105 3.105 0 00-.053-.51c0-.07-.1-.058-.159-.07a1.867 1.867 0 00-.363 0c-.058 0 0 .111 0 .193s.14.076.14.076c.098.006.195.024.288.053.1.041 0 .07-.041.088a.959.959 0 01-.287 0c-.07 0-.07.07-.088.14a.187.187 0 00.047.188c.053.046.181 0 .299 0 .117 0 .082.07.082.11 0 .042-.328 0-.422 0-.094 0 0 .147-.059.211-.058.065-.088-.11-.1-.181-.011-.07 0-.837 0-.837v.065zm-.586 1.123s.07-1.433.088-1.603c.017-.17.053-.585.193-.638.46-.023.92-.008 1.377.047.07.041.251.21.251.28 0 .071 0 .211-.04.17-.042-.04-.159-.28-.329-.31a4.982 4.982 0 00-1.17-.052c-.071.359-.114.723-.13 1.088 0 .193-.053.93-.058 1-.006.07-.17 0-.17 0l-.012.018zm-.059-3.96a.55.55 0 00.317.222h.21v.38c0 .058.094.368.165.41.07.04.134 0 .1-.164a1.304 1.304 0 01-.13-.44.515.515 0 01.117-.338 1.05 1.05 0 01.393-.088c.105 0 .217.029.228.14l.047.527c0 .11 0 .35-.129.397a3.092 3.092 0 01-.48.106c-.1 0-.088.105 0 .117.232.026.467.006.691-.059.103-.15.178-.316.223-.491a1.931 1.931 0 00-.094-.258c0-.081-.076-.17-.03-.198l.282-.135s-.352.082-.352-.03c0-.11.082-.198-.1-.245a.902.902 0 00-.392-.053 2.12 2.12 0 00-.286.1c-.1.053-.2.193-.282.181a1.545 1.545 0 01-.34-.117c-.058-.04-.146.047-.146.047l-.012-.012zm.205-1.06s.282.422.405.422a1.5 1.5 0 00.439-.223.583.583 0 00.44.223c.28 0 .514-.182.509-.31a1.588 1.588 0 000-.386c-.041-.047-.123.333-.14.374-.019.04-.112.035-.112.035a.62.62 0 00.07-.28c0-.112-.07-.182-.088-.141-.017.04-.111.439-.199.485-.088.047-.164 0-.24-.046-.076-.047-.152 0-.111-.082.056-.095.09-.2.1-.31 0-.082-.1 0-.153.099a2.994 2.994 0 01-.217.31c.04-.103.074-.208.1-.316 0-.093-.1-.129-.1-.129s-.128.433-.193.457a.24.24 0 01-.21-.094l-.1-.199s-.13-.046-.158 0a.157.157 0 000 .111h-.042zm.364 10.9c-.006.306.008.613.04.918.042.07.586.03.668.03.082 0 0-.077 0-.13 0-.052-.404 0-.468 0a.153.153 0 01-.111-.152c0-.07.245-.076.327-.076.082 0 .34.2.381.2a3.25 3.25 0 000-.638c0-.123 0-.27-.088-.31-.088-.041-.51-.041-.521 0-.012.04.14.046.258.076.117.029.193.052.228.122.042.164.042.334 0 .498-.04.04-.34-.059-.41-.059-.07 0-.082-.082-.082-.152 0-.07.404-.059.363-.117-.04-.058-.304 0-.369-.064-.064-.065 0-.2-.07-.229-.07-.029-.111.088-.111.088l-.035-.006zm1.013 1.556v.046a1.224 1.224 0 00-.674-.216 2.136 2.136 0 00-.585.158c-.17-.228-.364-.433-.498-.456a.768.768 0 00-.515.064.525.525 0 00-.106.129v-.182s.17-.28.2-.35c.028-.071 0-.246.105-.3.105-.052.234-.099.187-.257a13.008 13.008 0 01-.369-1.38.27.27 0 01.187-.275.192.192 0 00.1-.281 4.406 4.406 0 01-.586-1.17 1.643 1.643 0 01.135-.942c.094-.047.586-.181.662-.246.076-.064.03-.081 0-.35-.03-.27-.14-.48-.094-.586.047-.105.03-.245.111-.163.115.13.247.244.393.339.058 0 .17-.041.1-.129s-.48-.38-.54-.585a7.163 7.163 0 00-.269-1.17c-.135-.193-.351-.462-.345-.585.005-.123.035-.269.093-.269.059 0 .2-.041.17-.1-.03-.058-.129-.397-.07-.415.058-.017.48.14.527.1.047-.041 0-.322-.047-.38-.047-.06-.258-.37-.228-.463.029-.093.328-.228.328-.31 0-.082-.211-.234-.264-.298a2.2 2.2 0 01-.24-.755c.035-.14.076-.228.152-.222.076.006.223.088.264 0 .04-.088-.123-.392-.082-.538.04-.147.181-.31.181-.369s-.333-.27-.392-.433c-.059-.164 0-.368.082-.368s.346.081.375 0c.03-.082-.158-.34-.176-.457-.017-.117 0-.28.07-.304.09-.01.18-.01.27 0a.585.585 0 00.943.316.504.504 0 00.585.105c.012.201-.026.402-.11.585-.118.176-.206.2-.206.2a2.07 2.07 0 00.152-.516.211.211 0 00-.11-.088h-.077s.094.363-.076.428a.545.545 0 01-.404-.088s-.094.152 0 .205c.126.047.258.076.392.087 0 0 0 .217.164.152.15-.092.279-.213.38-.356 0 0 0 .193.089.175.087-.017.152-.298.123-.474a3.111 3.111 0 00-.123-.433l.152-.368a1.43 1.43 0 01.299-.035c.076 0 .28-.036.28.152a1.52 1.52 0 01-.204.585c-.065.093-.2.216-.123.245.076.03.246.036.263.1.018.064-.205.45-.205.515 0 .064.27 0 .27 0 .04.131.04.272 0 .403-.076.176-.258.404-.229.492.03.088.387.205.393.304a1.755 1.755 0 01-.182.679c-.088.1-.24.24-.24.357a.234.234 0 00.182.228c.076 0 .199-.041.134.082a4.05 4.05 0 00-.404.813c0 .158-.076.34 0 .327.076-.011.498-.181.545-.087.044.213.026.434-.053.637-.174.294-.31.608-.404.936a3.33 3.33 0 01-.07.632l-.153.328-.251.362s0 .153.076.117c.076-.035.21-.304.263-.339.053-.035.1.035.135.111a2.815 2.815 0 01-.088.585v.328c.058.035.126.05.194.04.122 0 .415.1.439.217.065.24.105.484.117.732 0 .14-.521.813-.556 1.012-.036.199-.106.509 0 .585.105.076.28.093.286.193-.02.278-.063.554-.128.825a4.32 4.32 0 00-.2.801c.068.214.117.433.147.655a1.755 1.755 0 000 .281.728.728 0 00-.486 0l.058-1.562.035-.11c.053-.083.041-.153 0-.153h-.158a.802.802 0 00-.234.053s.053 0 0 .251a6.486 6.486 0 00-.076.743v1.118h-.158zm-.949-5.225v-.163s.053-.088.1-.1c.047-.012.07.053.093.123v.14h-.193zm.398 0v-.234c0-.076.1 0 .147.1v.134h-.147zm.188.088v.181h-.2v-.18h.2zm-.352 0v.181h-.275v-.18h.275zm.586 5.265a1.968 1.968 0 00-.521-.14 2.2 2.2 0 00-.54.129l.089.128c.13-.036.263-.06.398-.07.105 0 .357.059.469.082l.105-.129zm-.82.369l-.07-.117c.103-.034.21-.061.316-.082a.745.745 0 01.375.105v.065c-.03.152-.188.748-.188.748s-.164.088-.21 0a6.045 6.045 0 00-.2-.73l-.023.01zm1.224-.76v-.24c0-.077.064-.44.064-.539v-.585a1.099 1.099 0 00-.04-.34c-.03-.052-.1 0-.1 0l-.094 1.791.14-.123.03.035z" fill="#EEC763"/><path fill-rule="evenodd" clip-rule="evenodd" d="M35.789 27.291a1.84 1.84 0 00.585-.35c.141-.167.232-.37.264-.586-.047 0-.217.375-.305.474-.087.1-.532.48-.532.48l-.012-.018zm0 .585c.052-.162.138-.311.252-.438.164-.152.386-.41.38-.281-.064.19-.168.363-.304.509a1.206 1.206 0 01-.328.21zm-1.236-1.17l-.088.076c-.034-.23-.08-.459-.14-.684-.053-.181-.387-.585-.405-.532-.017.052.118.204.252.55.084.287.129.584.135.883l-.035.07c-.352.123-.785-.251-.984-.836-.2-.585-.094-1.17.24-1.264.334-.094.767.263.966.848.108.284.128.594.059.89zm1.944-.339a1.311 1.311 0 01-.679.661c.163-.198.29-.424.375-.667.106-.24.156-.503.146-.766 0 0-.105 0-.088.1a3.772 3.772 0 01-.263.836 4.69 4.69 0 01-.352.503.726.726 0 00-.38-.398 1.409 1.409 0 01.175-.813c.258-.509.71-.801 1.002-.655.293.146.322.69.064 1.2zm-.878 1.328c0-.526-.287-.96-.656-.965-.369-.006-.662.41-.674.936a.906.906 0 00.586.96 1.96 1.96 0 00.2-.697 8.212 8.212 0 000-.936c.146.07.222.661.175.907a6.531 6.531 0 01-.205.725.902.902 0 00.586-.93h-.012zM23.645 31.264v2.34a62.487 62.487 0 0110.634-.813c5.633.07 11.84.714 11.84.714v-1.17c0-.217.17-1.17.17-1.17s-10.412-.667-11.887-.638c-1.476.03-10.78.743-10.78.743l.023-.006z" fill="#EEC763"/><path d="M33.285 33.066v.117V32.972v.093zm.55-.55a.55.55 0 010 1.094.539.539 0 01-.533-.427.55.55 0 01-.544.45.544.544 0 00-.984 0 .551.551 0 00-.978 0 .587.587 0 01-.44-.216.55.55 0 01-.474.28.544.544 0 01-.439-.222.54.54 0 01-.721.22.586.586 0 01-.198-.161.538.538 0 01-.943.04.585.585 0 01-.503.328.586.586 0 01-.404-.175.545.545 0 01-.902.105.539.539 0 01-.498.328.586.586 0 01-.38-.153.539.539 0 01-.463.264.544.544 0 00-.855.082.55.55 0 010-1.094.54.54 0 01.392.17.55.55 0 01.463-.252c.14 0 .274.054.374.152a.544.544 0 01.885-.07.538.538 0 01.497-.328.586.586 0 01.404.175.544.544 0 01.486-.298.586.586 0 01.463.258 1.756 1.756 0 001.429-.404.587.587 0 01.44.222.532.532 0 01.717-.22c.076.037.142.09.196.156a1.348 1.348 0 001.452-.293.54.54 0 01.498.328.545.545 0 011.019.129.585.585 0 01.544-.457v-.011zm2.173 0a.55.55 0 11-.557.702.545.545 0 11-.533-.673.551.551 0 01.533.421.55.55 0 01.533-.421l.024-.03zm9.486.526a.545.545 0 01.468.263.551.551 0 11-.117.702.585.585 0 01-.351.13.55.55 0 01-.48-.288.533.533 0 01-.41.188.538.538 0 01-.504-.334.55.55 0 01-.778.183.538.538 0 01-.2-.247.552.552 0 01-.937-.07.55.55 0 01-.907 0 .533.533 0 01-.679.129.586.586 0 01-.2-.176.532.532 0 01-.421.199.538.538 0 00-.884-.065.539.539 0 01-.48-.28 1.102 1.102 0 00-1.488.245.55.55 0 010-1.094.586.586 0 01.521.369.544.544 0 01.996-.094.55.55 0 01.717-.164.534.534 0 01.196.194.545.545 0 01.422-.205.584.584 0 01.462.245.55.55 0 01.879.053.527.527 0 01.415-.199.545.545 0 01.487.299.55.55 0 01.96.1.585.585 0 01.445-.23.544.544 0 01.504.334 1.613 1.613 0 001.364-.175v-.012z" fill="#975900"/><path fill-rule="evenodd" clip-rule="evenodd" d="M45.943 33.698a.392.392 0 01.779 0 .392.392 0 01-.779 0zm-.814-.13a.386.386 0 11.772 0 .386.386 0 01-.772 0zm-.89-.099a.386.386 0 11.772 0 .386.386 0 01-.772 0zm-.978-.058a.386.386 0 11.773 0 .386.386 0 01-.773 0zm-.949-.111a.385.385 0 01.66-.273.386.386 0 01-.273.659.382.382 0 01-.386-.386zm-.942-.065a.386.386 0 11.771 0 .386.386 0 01-.771 0zm-.879-.046a.386.386 0 11.772 0 .386.386 0 01-.772 0zm-.878-.047a.385.385 0 01.392-.386.387.387 0 11-.275.66.391.391 0 01-.117-.274zm-.89-.065a.391.391 0 11.783-.011.391.391 0 01-.783.011zm-.925-.046a.385.385 0 01.66-.273.385.385 0 11-.545.544.392.392 0 01-.115-.271zm-1.037 0a.386.386 0 11.387.386.392.392 0 01-.387-.386zm-1.118 0a.39.39 0 01.24-.37c.048-.02.1-.029.152-.028a.387.387 0 110 .772.38.38 0 01-.38-.386l-.012.012zm-1.066 0a.386.386 0 11.772 0 .386.386 0 01-.772 0zm-1.113 0a.391.391 0 11.783-.012.391.391 0 01-.783.012zm-1.071 0a.387.387 0 11.773 0 .387.387 0 01-.773 0zm-.984 0a.386.386 0 01.38-.386.386.386 0 11-.146.742.38.38 0 01-.234-.356zm-.978 0a.386.386 0 11.773 0 .386.386 0 01-.773 0zm-.913.064a.386.386 0 11.771 0 .386.386 0 01-.771 0zm-.914.059a.386.386 0 11.772 0 .386.386 0 01-.772 0zm-.931.07a.386.386 0 11.772 0 .386.386 0 01-.772 0zm-.96.076a.386.386 0 11.771 0 .386.386 0 01-.771 0zm-.89.123a.386.386 0 11.771 0 .386.386 0 01-.771 0zm-.914.134a.386.386 0 11.772 0 .386.386 0 01-.772 0zm-.843.105a.386.386 0 01.38-.386.387.387 0 11-.147.743.38.38 0 01-.233-.356zm-.855.088a.386.386 0 11.772 0 .386.386 0 01-.772 0z" fill="#EEC763"/><path d="M37.165 29.883a.539.539 0 01.516.363 1.946 1.946 0 001.446-.328.55.55 0 01.468.257.546.546 0 01.428-.199.586.586 0 01.456.246.54.54 0 01.416-.193.528.528 0 01.457.246.544.544 0 01.908.1.55.55 0 01.456-.24.546.546 0 00.95.11.544.544 0 00.977.059.55.55 0 01.48.287.52.52 0 01.41-.188.55.55 0 01.468.264.55.55 0 11-.117.702.586.586 0 01-.35.128.552.552 0 01-.481-.286.533.533 0 01-.41.187.539.539 0 01-.504-.334.55.55 0 01-.978-.064.585.585 0 01-.445.228.539.539 0 01-.486-.298.585.585 0 01-.45.24.55.55 0 01-.463-.252.54.54 0 01-.422.2.587.587 0 01-.457-.246.526.526 0 01-.415.198.545.545 0 01-.469-.263.55.55 0 01-.427.199.533.533 0 01-.474-.28 1.102 1.102 0 00-1.488.245.545.545 0 110-1.088zm-2.184 0a.544.544 0 01.533.415.55.55 0 110 .252.544.544 0 01-1.078-.123.538.538 0 01.545-.544zm-1.634.585v-.117V30.56v-.093zm-9.732.128a.536.536 0 01.392.164.528.528 0 01.463-.257.538.538 0 00.867-.094.585.585 0 01.41.182.533.533 0 01.7-.245c.07.031.133.077.184.134a.533.533 0 01.486-.305.586.586 0 01.462.258.537.537 0 01.745-.266.586.586 0 01.198.16.544.544 0 01.73-.239c.075.04.14.095.19.163a.544.544 0 01.913-.064.584.584 0 01.48-.275.55.55 0 00.978 0 .545.545 0 00.984 0 .552.552 0 01.539.427.538.538 0 01.822-.366.546.546 0 01-.114.974.545.545 0 01-.708-.397.544.544 0 01-.54.45.533.533 0 01-.497-.322.585.585 0 01-.486.299.55.55 0 00-.978 0 .587.587 0 01-.44-.217.55.55 0 01-.473.281.545.545 0 01-.44-.222.538.538 0 01-.721.22.586.586 0 01-.198-.162.539.539 0 01-.486.299.587.587 0 01-.463-.258.538.538 0 01-.497.328.586.586 0 01-.404-.176 1.8 1.8 0 00-1.377.41.539.539 0 00-.866.093.585.585 0 01-.392-.163.55.55 0 01-.848.092.544.544 0 01.385-.929v.023z" fill="#975900"/><path fill-rule="evenodd" clip-rule="evenodd" d="M45.943 31.065a.392.392 0 11.783-.012.392.392 0 01-.783.012zm-.814-.135a.386.386 0 11.772 0 .386.386 0 01-.772 0zm-.89-.093a.386.386 0 11.766-.095.386.386 0 01-.766.095zm-.978-.065a.386.386 0 11.773 0 .386.386 0 01-.773 0zm-.949-.11a.384.384 0 01.384-.434.387.387 0 01.384.433.386.386 0 11-.767 0zm-.942-.06a.386.386 0 11.773 0 .386.386 0 01-.773 0zm-.879-.046a.386.386 0 11.772 0 .386.386 0 01-.772 0zm-.878-.053a.391.391 0 01.392-.386.386.386 0 11-.392.386zm-.89-.058a.392.392 0 01.779 0 .392.392 0 01-.78 0zm-.925-.053a.386.386 0 11.771 0 .386.386 0 01-.771 0zm-1.037 0a.386.386 0 11.773 0 .386.386 0 01-.773 0zm-1.118 0a.381.381 0 01.38-.386.387.387 0 11-.38.386zm-1.066 0a.386.386 0 11.772 0 .386.386 0 01-.772 0zm-1.113 0a.392.392 0 01.78 0 .392.392 0 01-.78 0zm-1.071 0a.386.386 0 11.773 0 .386.386 0 01-.773 0zm-.984 0a.38.38 0 01.38-.386.386.386 0 11-.38.386zm-.978 0a.387.387 0 11.773 0 .387.387 0 01-.773 0zm-.913.059a.386.386 0 11.772 0 .386.386 0 01-.772 0zm-.914.058a.386.386 0 11.772 0 .386.386 0 01-.772 0zm-.931.076a.386.386 0 01.66-.273.386.386 0 11-.66.273zm-.96.07a.386.386 0 11.771 0 .386.386 0 01-.771 0zm-.89.123a.386.386 0 11.773 0 .386.386 0 01-.773 0zm-.89.111a.386.386 0 11.771 0 .386.386 0 01-.771 0zm-.867.094a.386.386 0 01.528-.357.386.386 0 11-.419.63.379.379 0 01-.11-.273zm-.855.088a.386.386 0 11.771 0 .386.386 0 01-.771 0z" fill="#EEC763"/><path fill-rule="evenodd" clip-rule="evenodd" d="M30.766 17.211c.39-.175.791-.327 1.2-.456.313-.086.636-.133.96-.14 0 0 .586.637.586.977 0 .339.123.842.123.842s-.281.275-.182.515c.062.16.09.331.082.503 0 0-.585.234-.585.374 0 .14-.299.82-.14 1.17.157.352.538 1 .538 1s-.316.182-.299.381c.018.2.399 1.556.399 1.556l-.44.1c-.9-2.221-1.648-4.5-2.242-6.822zm8.438.065a7.863 7.863 0 00-1.171-.48c-.498-.14-.984-.222-.984-.222s-.586.637-.586.977a6.958 6.958 0 01-.123.842s.281.275.182.52a1.169 1.169 0 00-.076.498s.556.24.585.38c.03.14.299.814.14 1.17-.157.357-.544 1-.544 1s.322.182.305.381c-.018.199-.404 1.556-.404 1.556l.439.1s1.142-2.814 1.382-3.592.843-3.113.843-3.113l.012-.017zM43.344 31.784l-.07.638s-.047.205.263.24 1.897.17 1.897.17a.328.328 0 00.205-.305 3.32 3.32 0 00.041-.743.422.422 0 00-.34-.14c-.181 0-1.698-.123-1.698-.123s1.698.21 1.81.257c.111.047.1.34.076.48-.023.14-.064.398-.182.398-.117 0-1.82-.152-1.891-.182-.07-.029-.111-.69-.111-.69zm-3.004-.216l-.065.637s-.04.205.27.234c.31.03 1.903.14 1.903.14a.322.322 0 00.193-.31c.042-.245.052-.494.03-.742a.405.405 0 00-.34-.135c-.182 0-1.699-.093-1.699-.093s1.705.18 1.81.228c.105.046.111.339.088.474-.024.134-.059.397-.17.403-.111.006-1.827-.123-1.897-.146-.07-.023-.123-.69-.123-.69zm-3.373-.13v.697s-.035.228.322.246c.357.017 2.202.058 2.202.058a.346.346 0 00.205-.345c.03-.268.03-.539 0-.807a.492.492 0 00-.399-.129H37.33s1.973.117 2.108.164.14.357.129.509c-.012.152-.041.439-.17.445-.129.005-2.108-.041-2.19-.07-.082-.03-.193-.744-.193-.744l-.047-.023zm-12.76.656l.07.638s0 .21.31.175c.311-.035 1.892-.263 1.892-.263a.311.311 0 00.129-.34 3.092 3.092 0 00-.129-.736.41.41 0 00-.357-.059c-.176.035-1.68.258-1.68.258s1.697-.176 1.815-.152c.117.023.175.31.181.45.006.14 0 .398-.082.427-.082.03-1.81.263-1.886.252-.076-.012-.263-.65-.263-.65zm3.069-.363l.029.638s0 .21.293.199a150.12 150.12 0 001.909-.129.316.316 0 00.146-.333c.004-.25-.02-.499-.07-.743a.44.44 0 00-.358-.082c-.175 0-1.698.14-1.698.14s1.716-.058 1.827 0c.111.059.152.316.152.457 0 .14 0 .403-.117.42-.117.018-1.82.141-1.891.118-.07-.023-.223-.661-.223-.661v-.023zm3.068-.187v.696s0 .229.34.223c.34-.006 2.201-.094 2.201-.094a.345.345 0 00.182-.357 3.826 3.826 0 00-.076-.807.545.545 0 00-.41-.1c-.205 0-1.962.117-1.962.117h2.108c.129 0 .176.351.17.504-.006.152 0 .438-.14.456-.141.017-2.103.1-2.19.082-.088-.018-.247-.732-.247-.732l.024.012zm3.308-.11v.695s0 .228.328.24c.328.012 2.202 0 2.202 0a.34.34 0 00.2-.35c.02-.27.008-.541-.036-.808a.516.516 0 00-.404-.117H33.98s1.974.076 2.103.123c.128.046.152.357.146.509-.006.152-.035.432-.164.444-.129.012-2.108 0-2.196 0-.088 0-.205-.743-.205-.743l-.012.006z" fill="#975900"/><path fill-rule="evenodd" clip-rule="evenodd" d="M36.078 29.497l.644-.404c.215-.115.446-.196.685-.24l-.24.398s.545-.48.726-.585a.692.692 0 01.34-.117l-.117.585c.145-.2.32-.375.52-.52.211-.076.426-.136.645-.182l-.316.69c.22-.218.46-.415.72-.584.222-.1.867-.287.89-.164a1.39 1.39 0 01-.404.643c-.123.082-.281.164-.281.164a2.57 2.57 0 00.785-.527c.257-.298.462-.339.585-.298.123.041-.082.462-.082.462.234-.013.459-.097.644-.24.317-.274.566-.619.726-1.006.082-.245.3-.585.463-.544a.498.498 0 01.182.585c-.082.2-.346.679-.346.679.301-.185.574-.414.808-.679.105-.372.252-.732.44-1.07.187-.182.427-.322.468-.14a4.97 4.97 0 01-.1.906s.586-.404.621-.743c.004-.6.051-1.197.14-1.79.123-.299.229-.661.41-.585.182.076.346.725.3 1.006-.048.28-.381 1.404-.381 1.404a15.75 15.75 0 001.13-1.527c.158-.34.626-1.386.925-1.065.299.322-.34 1.445-.586 1.709-.42.388-.861.751-1.323 1.088 0 0 1.124-.304 1.171-.164a1.795 1.795 0 01-1.33.948c-.531.06-1.057.16-1.575.298 0 0 .674.205 1.172.304.497.1.808.281.808.404a1.54 1.54 0 01-1.435.34 9.154 9.154 0 00-1.669-.34c.414.085.819.212 1.206.38.165.14.586.422.264.585-.322.164-1.411-.245-1.833-.321-.413-.06-.83-.095-1.247-.106.26.104.51.233.744.386.204.158.204.585 0 .521-.205-.064-1.453-.62-1.634-.643-.182-.024.503.263.585.339.082.076-.058.304-.52.222a6.906 6.906 0 01-1.488-.684s.902.585.743.585c-.324.017-.649-.01-.966-.082a7.795 7.795 0 00-.743-.421s.585.42.462.42h-.667l-.703-.303.463.321a2.775 2.775 0 00-.645.041 1.04 1.04 0 00-.28.164l-.487-.503h-.017zm9.469-4.897s-.065 1-.123 1.281c-.059.281-.34 1.136-.34 1.136.199-.376.365-.767.498-1.17.013-.42 0-.84-.035-1.258v.011zm.433 1.714s.884-.977 1.001-1.17c.117-.193.422-.842.422-.842s-.398.52-.521.737c-.123.216-.89 1.275-.89 1.275h-.012zm-1.517 1.141c.365-.067.727-.153 1.084-.257.251-.1 1.054-.322 1.054-.322s-.78.1-1.037.158c-.258.059-1.1.421-1.1.421zm-.937.498s.68-.416.697-.62c.018-.205-.117-.586-.117-.457 0 .201-.042.4-.123.585a5.495 5.495 0 01-.457.515v-.023zm-.298.339l.814.064a1.6 1.6 0 00.585.217c.39.042.782.042 1.171 0l-.585-.076c-.31-.026-.615-.101-.902-.223a3.093 3.093 0 00-1.054 0l-.03.018zm-1.4.585s.838.082 1.095.082a5.49 5.49 0 011.2.497 7.418 7.418 0 00-.919-.538 2.72 2.72 0 00-.978-.14c.196-.168.364-.365.498-.586.063-.247.098-.5.106-.754-.067.258-.156.51-.264.754a2.722 2.722 0 01-.738.661v.024zm-2.383.34c.204-.09.4-.198.586-.323a2.72 2.72 0 00.257-.356.92.92 0 00-.298.24c-.18.166-.376.313-.586.438h.04zm1.124-.159c.18-.034.355-.089.521-.164.117-.076.076-.298-.064-.158a2.86 2.86 0 01-.457.322zm-16.624-2.574s-1.447-1.088-1.57-1.45c-.123-.363-.421-1.17-.24-1.083.359.24.66.556.884.924.282.462 1.13 1.545 1.13 1.545a9.279 9.279 0 01-.222-1.404c0-.345.1-.825.24-.784.235.27.377.608.404.965-.087.43-.087.874 0 1.305.28.317.59.607.925.866a3.271 3.271 0 01-.327-.866c0-.24 0-.462.181-.322.249.27.447.584.586.924.145.362.371.687.661.948.24.12.488.22.744.298 0 0-.586-.339-.685-.643-.1-.304-.2-.644-.035-.702.164-.059.48.24.585.462.115.319.302.607.545.842.212.165.45.295.703.386.082 0-.1-.163-.217-.321-.117-.158-.205-.585 0-.544.205.04.404.503.586.62.181.117 1.089.585 1.089.585a2.802 2.802 0 01-.445-.644c-.059-.222-.117-.345.082-.345s.661.726.767.767c.105.04.14-.322.14-.504 0-.181.158-.064.422.117.263.182.445.223.503.404.059.181.586.527.586.527a2.266 2.266 0 01-.281-.585c0-.14-.041-.38.123-.281.178.102.34.23.48.38.116.132.243.254.38.363 0 0-.28-.38-.216-.38.182.025.35.11.48.24.136.154.292.29.463.403l-.38.175-.522.065-.726.058c-.182 0 .662-.298.662-.298s-.621.076-.785.117c-.164.04-.445.24-.545.24a4.742 4.742 0 01-.72.105c-.123-.04-.105-.427.176-.485.28-.059.849-.24.849-.24a2.889 2.889 0 00-1.171.181c-.346.199-.586.421-.767.439-.32.036-.637.105-.943.205-.082.058-.387.157-.264 0a3.26 3.26 0 011.025-.667 1.59 1.59 0 00.469-.182c-.256-.01-.51.032-.75.123a5.896 5.896 0 01-1.171.644c-.299.04-.463-.182-.322-.404.14-.222 1.071-.52 1.071-.52a2.633 2.633 0 00-1.13-.06c-.48.118-.966.504-1.388.586-.421.082-.802-.14-.685-.363.117-.222.299-.585.586-.725s.585-.2.585-.2a.92.92 0 00-.679.06c-.304.18-.585.52-1.019.485a1.2 1.2 0 01-.942-.404c-.165-.263.216-.444.585-.462a90.502 90.502 0 011.318-.04s-.07-.182-.685-.282a6.61 6.61 0 01-1.494-.28c-.222-.14-.75-.527-.767-.703-.017-.175-.14-.368.082-.327.223.04 1.042.064 1.042.064l-.046.082z" fill="#EEC763"/><path fill-rule="evenodd" clip-rule="evenodd" d="M45.848 21.95l.13 1.253-1.043-.585c.427-.433.732-.65.913-.662v-.005zm.896.463l1.254.924.134 1.685-.334-.199c.194-.684-.064-1.544-.673-.883l-.351-.176-.03-1.351zm3.473-2.89l.357.585-.264 1.07-.093-1.632v-.023zm-1.493 1.568c.035.134.17 1.585.17 1.585l.491.825.428-1.123-1.09-1.287zm-2.413-1.913l.2 1.755 1.416 1.105-.158-1.866-1.458-.994zm1.886-1.358c.151.555.273 1.117.363 1.685l1.288 1.539-.264-2.136-1.387-1.088zm1.024-2.972l.264.626s.527.299.363.1l-.627-.726zm.726 1.82l.27 1.58s.427.696.427.584c0-.11-.07-1.287-.1-1.415a4.996 4.996 0 00-.585-.726l-.012-.023zm-2.342-1.784l1.523 1.17.298 1.486-1.557-1.089-.264-1.55v-.018zm-1.03-2.001l.398.632 1.423.79-.586-.825-1.224-.585-.011-.012zm-2.167.17l1.932.953.586 1.849-1.903-1.053-.633-1.755.018.005zm.86 2.924c.036.135.586 1.756.586 1.756l1.722 1.17-.498-1.913-1.803-1.024-.006.011zM43.484 17.5l1.786.86.415 1.977-1.756-.924-.469-1.913h.024zm-2.764 5.277l.585.263-.298.333-.264-.585-.023-.011zm.328-.726l-.164.491.527.235.199-.463-.586-.263h.024zm.363-.96l-.193.527.655.299.299-.393-.761-.432zm.661-1.801l1.224.532.135.924-.86.41-.698-.31-.07-.515.27-1.041zm.533-1.948l-.334 1.094.89.526-.585-1.62h.03zm.358-2.475l-.065.626.328 1.024 1.657.696-.585-1.685-1.359-.661h.023zm.17-2.375l-.036 1.252.96.66-.925-1.912zm.427-.895l1.868.795.064.427-1.704-.795-.228-.427zM28.067 22.342l.433.492.363-.299-.234-.655-.586.462h.024zm-.691-1.094l.298.585.791-.363-.264-.713-.825.48v.011zm-3.654.497l.064 1.714 1.025-1.117-.89-.76-.2.163zm-.797.527l-.029 1.884a1.756 1.756 0 00-.826-.527c-.152 0-.228.047-.234.2 0 .208.012.417.035.625l.1.585-.398.193V23.42l1.352-1.17v.023zm1.423-1.504c.1 0 .68.1.68.1l.334-.86-1.014.76zm2.038-1.55l1.171-.626.364 1.451-1.306.89-.498-.229.27-1.486zm.726-2.474l.229 1.053s-.855.584-.826.497l.586-1.55h.011zm-2.7 1.415l1.705-.988-.586 2.012-1.475.895.363-1.919h-.006zm-2.64 2.054l-.17 2.094 1.552-1.375.328-2.012-1.716 1.293h.006zm-1.821 2.13l.732 1.339.193-.252.035-2.246-.96 1.17v-.012zm.234-3.686l1.323-1.024-.363 1.848-1.323 1.568.363-2.392zm2.377-1.949l-.726 1.984.1.198a14.912 14.912 0 001.651-1.023c0-.1.633-2.083.633-2.083l-1.652.924h-.006zm2.864-1.684l-.714 1.983 1.803-.825.264-1.322-.065-.264-1.288.428zm1.224-2.44l.029 1.17-.761.363.732-1.55v.017zm-2.565-.17l-.065.334 2.032-.86.235-.264-2.202.79zm-2.541 1.55l-.065.293a14.15 14.15 0 001.651-.89c.07-.134.264-.584.264-.584l-1.85 1.17v.012zm-1.904 2.499c-.142.35-.243.714-.298 1.088.01.222-.012.445-.065.66l.498-.426.527-1.785-.662.463zm1.283-1.206l1.686-1.058-.661 2.012-1.757 1.287.726-2.24h.006zm4.684-2.445l-.778 1.755-1.915.895.761-2.018 1.932-.626v-.006z" fill="#EEC763"/><path fill-rule="evenodd" clip-rule="evenodd" d="M14.65 65.248s-3.097 4.428-1.241 9.085a14.326 14.326 0 006.02 6.856s1.358-5.265.146-9.36a12.871 12.871 0 00-4.925-6.599v.017z" fill="#975900"/><path fill-rule="evenodd" clip-rule="evenodd" d="M14.746 65.505s4.053 3.48 4.685 6.927c.498 2.615-.047 6.294-.187 7.903-1.869-4.3-3.116-8.722-4.287-13.186a61.542 61.542 0 004.006 13.455 17.094 17.094 0 01-4.99-5.908c-2.343-4.546.802-9.162.802-9.162l-.03-.03z" fill="#0BB678"/><path fill-rule="evenodd" clip-rule="evenodd" d="M19.64 74.128s-.943 4.096 1.757 6.921a11.13 11.13 0 006.347 3.206s-.556-4.2-2.629-6.798a10.027 10.027 0 00-5.475-3.329z" fill="#975900"/><path fill-rule="evenodd" clip-rule="evenodd" d="M19.774 74.286s3.935 1.334 5.404 3.633c1.125 1.755 1.804 4.552 2.173 5.757a73.357 73.357 0 01-6.98-8.278 48.172 48.172 0 006.816 8.541 13.292 13.292 0 01-5.323-2.808c-2.998-2.603-2.09-6.845-2.09-6.845z" fill="#0BB678"/><path fill-rule="evenodd" clip-rule="evenodd" d="M13.2 88.14s2.98-4.16 6.581-4.271c4.34-.14 8.081 2.474 8.081 2.474s-3.426 2.972-6.998 3.51c-3.572.539-7.665-1.714-7.665-1.714z" fill="#975900"/><path fill-rule="evenodd" clip-rule="evenodd" d="M13.54 88.064s4.21 2.076 7.22 1.415c2.289-.497 5.217-2.246 6.476-2.925-4.129-.04-8.269.532-12.327 1.088a54.665 54.665 0 0112.297-1.51 15.582 15.582 0 00-6.511-1.877c-4.48-.31-7.144 3.797-7.144 3.797l-.012.011z" fill="#0BB678"/><path fill-rule="evenodd" clip-rule="evenodd" d="M15.905 26.636s1.757 3.698.445 6.254c-1.587 3.083-4.867 4.68-4.867 4.68s-.756-3.545.252-6.248c1.007-2.703 4.17-4.68 4.17-4.68v-.006z" fill="#975900"/><path fill-rule="evenodd" clip-rule="evenodd" d="M15.824 26.917s-3.08 2.13-3.79 4.493c-.538 1.79-.444 4.51-.468 5.645a67.309 67.309 0 004.012-9.02 43.192 43.192 0 01-3.701 9.155 12.351 12.351 0 003.836-3.814c1.956-3.007.111-6.436.111-6.436v-.023z" fill="#0BB678"/><path fill-rule="evenodd" clip-rule="evenodd" d="M23.036 35.5s-3.027-2.282-6.324-1.112a10.03 10.03 0 00-4.966 4.036s3.66 1.083 6.553.334a9.03 9.03 0 004.749-3.282l-.012.023z" fill="#975900"/><path fill-rule="evenodd" clip-rule="evenodd" d="M22.855 35.558s-2.536 2.738-4.972 3.112c-1.844.275-4.41-.193-5.533-.327a65.828 65.828 0 019.369-2.703 43.047 43.047 0 00-9.528 2.475 11.898 11.898 0 014.263-3.347c3.244-1.51 6.4.79 6.4.79z" fill="#0BB678"/><path fill-rule="evenodd" clip-rule="evenodd" d="M23.74 28.456s-4.005-.732-6.575.953C13.013 32.147 11.66 37.5 11.66 37.5a18.903 18.903 0 007.613-2.55c2.846-1.756 4.468-6.494 4.468-6.494z" fill="#975900"/><path fill-rule="evenodd" clip-rule="evenodd" d="M23.417 28.748s-1.669 4.41-4.333 5.99a29.473 29.473 0 01-6.512 2.487 85.245 85.245 0 019.557-7.84c-3.514 1.954-6.688 4.634-9.902 7.553a14.799 14.799 0 013.408-5.745c3.08-3.3 7.782-2.445 7.782-2.445z" fill="#35AA72"/><path fill-rule="evenodd" clip-rule="evenodd" d="M6.59 33.75s3.724 3.422 3.402 6.962c-.387 4.259-3.403 7.605-3.403 7.605s-2.506-3.715-2.606-7.278c-.1-3.562 2.606-7.295 2.606-7.295v.006z" fill="#975900"/><path fill-rule="evenodd" clip-rule="evenodd" d="M6.622 34.113S4.08 37.98 4.362 41.01c.216 2.3 1.575 5.377 2.079 6.687.538-4.037.474-8.161.415-12.198a53.18 53.18 0 010 12.21 15.29 15.29 0 002.63-6.149c.843-4.347-2.864-7.447-2.864-7.447z" fill="#0BB678"/><path fill-rule="evenodd" clip-rule="evenodd" d="M17.814 38.863s-4.626-.643-7.484 2.615a12.28 12.28 0 00-2.928 7.313s4.591-1.018 7.267-3.557a11.111 11.111 0 003.15-6.37h-.005z" fill="#975900"/><path fill-rule="evenodd" clip-rule="evenodd" d="M17.654 39.068s-1.095 4.47-3.513 6.318c-1.822 1.404-4.867 2.428-6.16 2.954a81.356 81.356 0 018.478-8.506 53.267 53.267 0 00-8.783 8.354 14.695 14.695 0 012.594-6.195c2.594-3.563 7.372-2.972 7.372-2.972l.012.047z" fill="#0BB678"/><path fill-rule="evenodd" clip-rule="evenodd" d="M12.509 35.137s-3.883 1.234-5.353 3.931c-2.384 4.364-1.066 9.723-1.066 9.723a18.98 18.98 0 005.528-5.82c1.681-2.89.89-7.834.89-7.834z" fill="#975900"/><path fill-rule="evenodd" clip-rule="evenodd" d="M12.38 35.558s.585 4.68-1.02 7.318a29.602 29.602 0 01-4.574 5.265 83.293 83.293 0 014.756-11.413c-2.173 3.364-3.73 7.225-5.195 11.308a14.75 14.75 0 01.304-6.67c1.172-4.358 5.728-5.808 5.728-5.808z" fill="#0BB678"/><path fill-rule="evenodd" clip-rule="evenodd" d="M1.154 45.626s4.597 2.1 5.388 5.57c.949 4.17-.884 8.283-.884 8.283S2.144 56.724.925 53.366c-1.218-3.358.229-7.74.229-7.74z" fill="#975900"/><path fill-rule="evenodd" clip-rule="evenodd" d="M1.294 45.954s-1.224 4.463 0 7.26c.914 2.117 3.163 4.627 4.047 5.715a83.358 83.358 0 00-3.38-11.7A53.393 53.393 0 015.74 58.836c.685-2.149.885-4.423.586-6.658-.539-4.393-5.031-6.201-5.031-6.201v-.023z" fill="#0BB678"/><path fill-rule="evenodd" clip-rule="evenodd" d="M13.256 47.182s-4.638.585-6.553 4.452a12.316 12.316 0 00-.943 7.828s4.175-2.17 6.096-5.312a11.107 11.107 0 001.4-6.968z" fill="#975900"/><path fill-rule="evenodd" clip-rule="evenodd" d="M13.145 47.393s.105 4.598-1.757 7.02c-1.4 1.825-4.1 3.604-5.188 4.446a80.704 80.704 0 016.014-10.43 52.709 52.709 0 00-6.33 10.342c-.21-2.244.103-4.507.913-6.61 1.581-4.096 6.348-4.78 6.348-4.78v.012z" fill="#0BB678"/><path fill-rule="evenodd" clip-rule="evenodd" d="M7.075 45.217s-3.233 2.48-3.69 5.517c-.744 4.92 2.343 9.5 2.343 9.5a18.897 18.897 0 003.198-7.353c.585-3.294-1.84-7.664-1.84-7.664h-.011z" fill="#975900"/><path fill-rule="evenodd" clip-rule="evenodd" d="M7.088 45.638s2.166 4.188 1.552 7.225a29.816 29.816 0 01-2.501 6.5c-.11-4.124.085-8.25.585-12.345-.89 3.908-1.025 8.068-1.007 12.403A14.76 14.76 0 013.72 53.05c-.392-4.493 3.39-7.412 3.39-7.412h-.022z" fill="#0BB678"/><path fill-rule="evenodd" clip-rule="evenodd" d="M.006 59.017s5.053.316 7.027 3.27c2.383 3.557 2.149 8.056 2.149 8.056s-4.287-1.31-6.611-4.013C.246 63.627 0 59.017 0 59.017h.006z" fill="#975900"/><path fill-rule="evenodd" clip-rule="evenodd" d="M.258 59.274s.462 4.605 2.594 6.78c1.616 1.656 4.614 3.19 5.856 3.891a84.084 84.084 0 00-7.361-9.735 53.55 53.55 0 017.694 9.484 15.31 15.31 0 00-1.832-6.436C5.124 59.35.287 59.268.287 59.268l-.03.006z" fill="#0BB678"/><path fill-rule="evenodd" clip-rule="evenodd" d="M11.957 55.934s-4.03 2.44-4.176 6.74a12.335 12.335 0 002.343 7.529s2.928-3.68 3.402-7.33a11.106 11.106 0 00-1.558-6.939h-.011z" fill="#975900"/><path fill-rule="evenodd" clip-rule="evenodd" d="M11.941 56.174s1.968 4.165 1.271 7.114c-.533 2.234-2.254 4.943-2.928 6.166a80.588 80.588 0 011.236-11.94A53.102 53.102 0 009.944 69.53a14.719 14.719 0 01-1.856-6.435c-.234-4.4 3.854-6.945 3.854-6.945v.024z" fill="#0BB678"/><path fill-rule="evenodd" clip-rule="evenodd" d="M5.482 56.373s-2.243 3.399-1.686 6.435c.902 4.885 5.306 8.22 5.306 8.22.774-2.583.987-5.302.626-7.974-.515-3.305-4.246-6.652-4.246-6.652v-.029z" fill="#975900"/><path fill-rule="evenodd" clip-rule="evenodd" d="M5.634 56.77s3.414 3.26 3.824 6.33c.317 2.34-.052 5.54-.246 6.95a83.862 83.862 0 01-3.514-11.846c.434 3.978 1.658 7.962 3.093 12.051a14.721 14.721 0 01-3.965-5.37c-1.84-4.125.785-8.115.785-8.115h.023z" fill="#0BB678"/><path fill-rule="evenodd" clip-rule="evenodd" d="M3.066 76.147s4.685-3.072 8.363-1.756c4.456 1.545 7.237 5.663 7.237 5.663s-4.643 1.685-8.485.843c-3.841-.843-7.115-4.727-7.115-4.727v-.023z" fill="#975900"/><path fill-rule="evenodd" clip-rule="evenodd" d="M3.46 76.205s3.468 3.744 6.788 4.253c2.518.38 6.178-.257 7.712-.438-4.175-1.65-8.608-2.686-12.947-3.698a59.19 59.19 0 0113.07 3.253 16.886 16.886 0 00-5.856-4.446c-4.433-2.06-8.743 1.076-8.743 1.076h-.023z" fill="#0BB678"/><path fill-rule="evenodd" clip-rule="evenodd" d="M7.13 67.044s-.362 4.739 1.915 7.512c3.69 4.48 10.072 5.394 10.072 5.394-.674-3.082-2-5.984-3.888-8.513-2.4-3.088-8.098-4.393-8.098-4.393z" fill="#975900"/><path fill-rule="evenodd" clip-rule="evenodd" d="M7.512 67.366s5.323 1.392 7.483 4.3c1.646 2.2 3.086 5.68 3.69 7.236a98.157 98.157 0 01-10.277-10.12c2.7 3.814 6.2 7.184 9.984 10.53A17.263 17.263 0 0111.3 76.07c-4.21-3.171-3.788-8.729-3.788-8.729v.024z" fill="#0BB678"/><path fill-rule="evenodd" clip-rule="evenodd" d="M11.922 78.785s1.973 4.51 5.405 5.932c5.551 2.34 11.834.047 11.834.047a22.882 22.882 0 00-7.7-5.914c-3.69-1.656-9.54-.082-9.54-.082v.017z" fill="#975900"/><path fill-rule="evenodd" clip-rule="evenodd" d="M12.426 78.89s5.551-1.304 8.936.299c2.576 1.21 5.592 3.697 6.898 4.826a101.632 101.632 0 01-14.323-4.265c4.321 2.182 9.17 3.557 14.264 4.803a17.854 17.854 0 01-8.063.474c-5.388-.848-7.712-6.137-7.712-6.137z" fill="#0BB678"/><path fill-rule="evenodd" clip-rule="evenodd" d="M55.358 65.248s3.097 4.428 1.241 9.085a14.325 14.325 0 01-6.02 6.856s-1.358-5.265-.146-9.36a12.872 12.872 0 014.925-6.581z" fill="#975900"/><path fill-rule="evenodd" clip-rule="evenodd" d="M55.258 65.505s-4.047 3.48-4.685 6.927c-.492 2.615.053 6.294.187 7.903 1.886-4.3 3.11-8.722 4.329-13.215a61.204 61.204 0 01-4 13.455 17.092 17.092 0 004.99-5.909c2.342-4.545-.809-9.161-.809-9.161h-.012z" fill="#0BB678"/><path fill-rule="evenodd" clip-rule="evenodd" d="M50.382 74.128s.943 4.096-1.757 6.921a11.129 11.129 0 01-6.348 3.206s.586-4.2 2.624-6.798a10.05 10.05 0 015.48-3.329z" fill="#975900"/><path fill-rule="evenodd" clip-rule="evenodd" d="M50.234 74.286s-3.936 1.334-5.411 3.633c-1.113 1.755-1.792 4.552-2.167 5.757a73.975 73.975 0 006.98-8.278 47.639 47.639 0 01-6.816 8.541 13.291 13.291 0 005.323-2.808c2.998-2.603 2.09-6.845 2.09-6.845z" fill="#0BB678"/><path fill-rule="evenodd" clip-rule="evenodd" d="M56.83 88.14s-2.986-4.16-6.587-4.271c-4.333-.14-8.075 2.474-8.075 2.474s3.431 2.972 6.998 3.51c3.566.539 7.665-1.72 7.665-1.72v.006z" fill="#975900"/><path fill-rule="evenodd" clip-rule="evenodd" d="M56.47 88.064s-4.204 2.076-7.22 1.415c-2.29-.497-5.218-2.246-6.477-2.925 4.129-.04 8.269.532 12.327 1.088a54.624 54.624 0 00-12.297-1.51 15.582 15.582 0 016.511-1.877c4.48-.31 7.144 3.797 7.144 3.797l.012.011z" fill="#0BB678"/><path fill-rule="evenodd" clip-rule="evenodd" d="M54.105 26.636s-1.757 3.698-.44 6.254c1.582 3.083 4.862 4.68 4.862 4.68s.75-3.545-.252-6.248c-1.002-2.703-4.17-4.68-4.17-4.68v-.006z" fill="#975900"/><path fill-rule="evenodd" clip-rule="evenodd" d="M54.186 26.917s3.08 2.13 3.79 4.493c.538 1.79.445 4.51.474 5.645a66.605 66.605 0 01-4.018-9.02 43.854 43.854 0 003.702 9.155 12.352 12.352 0 01-3.836-3.814c-1.956-3.007-.112-6.436-.112-6.436v-.023z" fill="#0BB678"/><path fill-rule="evenodd" clip-rule="evenodd" d="M46.973 35.5s3.027-2.282 6.336-1.112a10.03 10.03 0 014.965 4.036s-3.66 1.083-6.552.334a9.03 9.03 0 01-4.75-3.282v.023z" fill="#975900"/><path fill-rule="evenodd" clip-rule="evenodd" d="M47.16 35.558s2.542 2.737 4.972 3.112c1.844.275 4.41-.193 5.533-.328a65.827 65.827 0 00-9.369-2.703 43.046 43.046 0 019.528 2.475 11.896 11.896 0 00-4.264-3.346c-3.25-1.504-6.4.79-6.4.79z" fill="#0BB678"/><path fill-rule="evenodd" clip-rule="evenodd" d="M46.29 28.456s4.004-.732 6.575.953c4.152 2.738 5.51 8.091 5.51 8.091a18.914 18.914 0 01-7.612-2.55c-2.846-1.756-4.468-6.494-4.468-6.494h-.006z" fill="#975900"/><path fill-rule="evenodd" clip-rule="evenodd" d="M46.574 28.748s1.67 4.41 4.34 5.99a29.33 29.33 0 006.505 2.487 84.722 84.722 0 00-9.556-7.84c3.513 1.954 6.687 4.634 9.902 7.553a14.798 14.798 0 00-3.409-5.745c-3.08-3.3-7.782-2.445-7.782-2.445z" fill="#0BB678"/><path fill-rule="evenodd" clip-rule="evenodd" d="M63.422 33.75s-3.724 3.422-3.402 6.962c.386 4.259 3.402 7.605 3.402 7.605s2.507-3.715 2.612-7.278c.106-3.562-2.612-7.295-2.612-7.295v.006z" fill="#975900"/><path fill-rule="evenodd" clip-rule="evenodd" d="M63.393 34.113s2.536 3.867 2.255 6.897c-.217 2.3-1.576 5.377-2.08 6.687-.538-4.037-.474-8.161-.415-12.198a53.173 53.173 0 000 12.21 15.288 15.288 0 01-2.63-6.149c-.843-4.347 2.87-7.447 2.87-7.447z" fill="#0BB678"/><path fill-rule="evenodd" clip-rule="evenodd" d="M52.19 38.863s4.631-.643 7.489 2.615a12.279 12.279 0 012.928 7.313s-4.591-1.018-7.261-3.557a11.111 11.111 0 01-3.162-6.37h.005z" fill="#975900"/><path fill-rule="evenodd" clip-rule="evenodd" d="M52.355 39.068s1.096 4.47 3.514 6.318c1.821 1.404 4.866 2.428 6.16 2.954a80.851 80.851 0 00-8.485-8.506 53.069 53.069 0 018.784 8.354 14.812 14.812 0 00-2.6-6.195c-2.612-3.51-7.373-2.925-7.373-2.925z" fill="#0BB678"/><path fill-rule="evenodd" clip-rule="evenodd" d="M57.502 35.137s3.883 1.234 5.359 3.931c2.384 4.364 1.06 9.723 1.06 9.723a18.981 18.981 0 01-5.529-5.82c-1.68-2.89-.89-7.834-.89-7.834z" fill="#975900"/><path fill-rule="evenodd" clip-rule="evenodd" d="M57.632 35.558s-.586 4.68 1.019 7.318c1.218 2.013 3.514 4.277 4.574 5.265a83.287 83.287 0 00-4.756-11.413c2.173 3.364 3.73 7.225 5.195 11.308a14.838 14.838 0 00-.305-6.67c-1.17-4.358-5.727-5.808-5.727-5.808z" fill="#0BB678"/><path fill-rule="evenodd" clip-rule="evenodd" d="M68.856 45.626s-4.597 2.1-5.388 5.57c-.949 4.17.884 8.283.884 8.283s3.514-2.755 4.732-6.113c1.218-3.358-.228-7.74-.228-7.74z" fill="#975900"/><path fill-rule="evenodd" clip-rule="evenodd" d="M68.716 45.954s1.219 4.463 0 7.26c-.913 2.117-3.162 4.627-4.04 5.715.731-4.001 2.067-7.903 3.373-11.7a53.39 53.39 0 00-3.778 11.607 15.265 15.265 0 01-.586-6.658c.54-4.393 5.031-6.201 5.031-6.201v-.023z" fill="#0BB678"/><path fill-rule="evenodd" clip-rule="evenodd" d="M56.754 47.182s4.638.585 6.553 4.452a12.315 12.315 0 01.942 7.828s-4.175-2.17-6.095-5.312a11.106 11.106 0 01-1.4-6.968z" fill="#975900"/><path fill-rule="evenodd" clip-rule="evenodd" d="M56.864 47.393s-.105 4.598 1.757 7.02c1.394 1.825 4.1 3.604 5.182 4.446a80.714 80.714 0 00-6.008-10.43 53.014 53.014 0 016.348 10.354 14.74 14.74 0 00-.92-6.61c-1.58-4.096-6.347-4.78-6.347-4.78h-.012z" fill="#0BB678"/><path fill-rule="evenodd" clip-rule="evenodd" d="M62.936 45.217s3.233 2.48 3.696 5.517c.738 4.92-2.343 9.5-2.343 9.5a18.897 18.897 0 01-3.198-7.353c-.585-3.294 1.84-7.664 1.84-7.664h.005z" fill="#975900"/><path fill-rule="evenodd" clip-rule="evenodd" d="M62.924 45.638s-2.167 4.188-1.552 7.225a29.817 29.817 0 002.5 6.5 84.988 84.988 0 00-.585-12.345c.89 3.908 1.025 8.068 1.007 12.403a14.759 14.759 0 001.997-6.371c.392-4.493-3.39-7.412-3.39-7.412h.023z" fill="#0BB678"/><path fill-rule="evenodd" clip-rule="evenodd" d="M69.999 59.017s-5.054.316-7.027 3.27c-2.383 3.557-2.15 8.056-2.15 8.056s4.287-1.31 6.612-4.013 2.565-7.313 2.565-7.313z" fill="#975900"/><path fill-rule="evenodd" clip-rule="evenodd" d="M69.747 59.274s-.457 4.605-2.589 6.78c-1.616 1.656-4.614 3.19-5.855 3.891a84.093 84.093 0 017.36-9.735 53.548 53.548 0 00-7.694 9.484 15.31 15.31 0 011.833-6.436c2.084-3.908 6.915-3.99 6.915-3.99l.03.006z" fill="#0BB678"/><path fill-rule="evenodd" clip-rule="evenodd" d="M58.058 55.934s4 2.41 4.17 6.74a12.335 12.335 0 01-2.343 7.529s-2.928-3.68-3.403-7.33a11.105 11.105 0 011.564-6.939h.012z" fill="#975900"/><path fill-rule="evenodd" clip-rule="evenodd" d="M58.069 56.174s-1.968 4.165-1.271 7.114c.533 2.234 2.255 4.943 2.928 6.166a81.363 81.363 0 00-1.23-11.94 53.436 53.436 0 011.546 12.016 14.719 14.719 0 001.857-6.435c.234-4.4-3.854-6.945-3.854-6.945l.024.024z" fill="#0BB678"/><path fill-rule="evenodd" clip-rule="evenodd" d="M64.53 56.373s2.243 3.399 1.686 6.435c-.901 4.885-5.306 8.22-5.306 8.22a18.946 18.946 0 01-.626-7.974c.515-3.305 4.246-6.652 4.246-6.652v-.029z" fill="#975900"/><path fill-rule="evenodd" clip-rule="evenodd" d="M64.377 56.77s-3.414 3.26-3.824 6.33c-.316 2.34.053 5.54.246 6.95a83.855 83.855 0 003.514-11.846c-.428 3.978-1.657 7.962-3.086 12.051a14.791 14.791 0 003.959-5.37c1.839-4.125-.785-8.115-.785-8.115h-.024z" fill="#0BB678"/><path fill-rule="evenodd" clip-rule="evenodd" d="M66.944 76.147s-4.656-3.072-8.363-1.756c-4.456 1.533-7.237 5.628-7.237 5.628s4.643 1.685 8.485.843c3.841-.843 7.114-4.727 7.114-4.727v.011z" fill="#975900"/><path fill-rule="evenodd" clip-rule="evenodd" d="M66.542 76.205s-3.455 3.744-6.781 4.253c-2.518.38-6.178-.257-7.712-.438 4.175-1.65 8.608-2.686 12.947-3.698a59.095 59.095 0 00-13.07 3.253 16.886 16.886 0 015.856-4.446c4.432-2.06 8.736 1.076 8.736 1.076h.024z" fill="#0BB678"/><path fill-rule="evenodd" clip-rule="evenodd" d="M62.877 67.044s.363 4.739-1.914 7.512c-3.684 4.48-10.072 5.394-10.072 5.394a22.134 22.134 0 013.882-8.513c2.4-3.088 8.098-4.393 8.098-4.393h.006z" fill="#975900"/><path fill-rule="evenodd" clip-rule="evenodd" d="M62.497 67.366s-5.323 1.392-7.484 4.3c-1.645 2.2-3.086 5.68-3.689 7.236a98.175 98.175 0 0010.277-10.12c-2.694 3.814-6.201 7.184-9.955 10.53a17.293 17.293 0 007.092-3.241c4.21-3.171 3.788-8.729 3.788-8.729l-.029.024z" fill="#0BB678"/><path fill-rule="evenodd" clip-rule="evenodd" d="M58.087 78.785s-1.973 4.51-5.405 5.932c-5.551 2.34-11.834.047-11.834.047a22.957 22.957 0 017.7-5.914c3.695-1.656 9.54-.082 9.54-.082v.017z" fill="#975900"/><path fill-rule="evenodd" clip-rule="evenodd" d="M57.584 78.89s-5.545-1.304-8.936.299c-2.576 1.21-5.592 3.697-6.898 4.826a101.632 101.632 0 0014.323-4.265c-4.327 2.182-9.164 3.557-14.264 4.803 2.616.772 5.374.934 8.063.474 5.387-.848 7.712-6.137 7.712-6.137z" fill="#0BB678"/><path d="M25.999 78.85c3.244.585 14.762.585 18.006 0a17.966 17.966 0 00.1 7.447l1.757.07L45.276 90c-3.554-.696-16.982-.696-20.554 0l-.585-3.633 1.756-.07c.556-2.448.59-4.986.1-7.447h.006z" fill="#975900"/><path d="M26.439 79.435c3.244.38 13.814.38 17.058 0-.657 3.33-.36 6.776.855 9.945-3.473-.439-15.225-.439-18.692 0a17.963 17.963 0 00.779-9.945z" fill="#0BB678"/><path d="M48.203 67.36c.427.538.205 1.047-.117 1.515-.341.45-.713.876-1.113 1.275-.401.392-.827.758-1.276 1.094-.475.322-.984.538-1.517.117l-.275-.754c-2.793-3.265-5.622-6.47-8.561-9.6L26.63 70.12l-.276.743c-.538.421-1.036.205-1.51-.117A11.18 11.18 0 0123 68.91c-.322-.474-.544-.977-.117-1.515l.744-.275 9.1-8.834c-2.554-2.592-5.165-5.09-7.935-7.453L21.69 53.98a1.17 1.17 0 01-1.816.053l-2.927-2.925a1.212 1.212 0 010-1.714l9.269-9.255a1.206 1.206 0 011.71 0l2.928 2.925a1.216 1.216 0 010 1.714l-3.21 3.2c2.343 2.709 4.931 5.47 7.478 7.98l9.112-8.828a1.755 1.755 0 00.187-1.662l-2.928-2.878-.129-1.047 1.435-1.463.984.094c5.229 4.171 9.369 9.249 10.839 15.97l-.738.293c-.662-1.105-3.795-6.347-5.721-7.406-.416-.234-.99-.123-1.71.363l-8.66 9.103c3.08 2.878 6.493 5.85 9.679 8.588l.755.275h-.023z" fill="#975900"/><path d="M37.578 58.877c3.05 2.86 6.283 5.704 9.656 8.582l.714.257c.147.193.082.492-.205.913a11.842 11.842 0 01-2.295 2.293c-.416.281-.72.351-.908.2l-.263-.715a263.535 263.535 0 00-8.573-9.588l1.874-1.942zm-20.326-8.039a.79.79 0 010-1.111l9.27-9.261a.79.79 0 011.113 0l2.927 2.925a.777.777 0 010 1.112l-3.484 3.51c2.384 2.802 4.954 5.505 7.73 8.225l-1.821 1.796c-2.74-2.79-5.382-5.323-8.198-7.722l-3.485 3.48a.791.791 0 01-1.112 0l-2.928-2.924-.012-.03z" fill="#EEC763"/><path d="M41.92 42.39l-.089-.696 1.171-1.17.65.07c5.801 4.622 9.315 9.79 10.54 15.504-2.342-3.914-4.432-6.681-5.803-7.436-.65-.357-1.428-.111-2.195.41l-19.91 20.85-.263.708c-.187.152-.492.082-.913-.2a10.645 10.645 0 01-1.757-1.754c-.287-.416-.351-.72-.205-.907l.714-.263 20.723-20.113c.381-.585.645-1.662.176-2.218l-2.834-2.79-.006.006z" fill="#EEC763"/><path fill-rule="evenodd" clip-rule="evenodd" d="M39.332 82.243c.145-.285.36-.527.627-.703.162-.1.348-.154.539-.158a.621.621 0 01.538.252c.079.12.122.26.123.404a1.287 1.287 0 01-.245.725 3.242 3.242 0 01-.586.632 9.241 9.241 0 01-.773.585l.222.398c.09-.067.19-.122.293-.164a.949.949 0 01.316-.058.933.933 0 01.697.257c.174.2.262.46.246.725.002.3-.07.595-.21.86a1.908 1.908 0 01-.715.737 2.86 2.86 0 01-1.347.34l-.123.497h.486a3.781 3.781 0 001.757-.427c.466-.246.867-.6 1.171-1.03.267-.366.416-.804.428-1.257a1.444 1.444 0 00-.37-1.036 1.365 1.365 0 00-1.024-.398h-.21v-.076c.147-.108.287-.225.42-.35.175-.176.327-.373.452-.586.132-.213.205-.457.21-.708a.994.994 0 00-.328-.737 1.412 1.412 0 00-.99-.345 2.153 2.153 0 00-.65.082c-.258.079-.497.21-.702.386-.275.25-.503.547-.673.878l.421.24v.035zm-4.397.48h.363c.04-.346.129-.556.263-.627a.674.674 0 01.393-.088h2.014c-.305.469-.65 1.03-1.025 1.691a26.931 26.931 0 00-1.019 2.007 9.356 9.356 0 00-.626 1.755h1.598c.082-.38.194-.843.34-1.38.146-.539.31-1.112.486-1.709s.363-1.17.539-1.755l.486-1.521v-.363h-3.69l-.122 1.96v.03zm-4.27 0h.37c.04-.346.129-.556.263-.627a.674.674 0 01.393-.088h2.014c-.31.469-.65 1.03-1.019 1.691a29.483 29.483 0 00-1.025 2.007 9.356 9.356 0 00-.626 1.755h1.598c.082-.38.194-.843.34-1.38.146-.539.31-1.112.486-1.709s.363-1.17.539-1.755l.486-1.521v-.363h-3.69l-.128 1.96v.03zm-1.826-1.96a5.765 5.765 0 01-.738.959c-.261.28-.552.53-.867.749v.532c.374-.262.72-.56 1.037-.89l.07 4.4a.877.877 0 01-.058.363.499.499 0 01-.422.275v.345h2.395v-.345c-.228-.047-.363-.135-.41-.275a.866.866 0 01-.064-.363v-5.75h-.943z" fill="#FAD169"/><path fill-rule="evenodd" clip-rule="evenodd" d="M244.156 21.199c.361.217.796.327 1.307.33.524.004.98-.105 1.367-.325.39-.221.693-.532.906-.933.214-.402.321-.87.321-1.405a3.06 3.06 0 00-.286-1.35 2.18 2.18 0 00-.806-.927c-.35-.228-.768-.342-1.252-.342-.374 0-.726.076-1.056.226-.331.15-.599.386-.806.707.03-.387.113-.737.25-1.048.14-.314.34-.55.601-.707.177-.114.387-.203.631-.266.247-.067.504-.119.771-.156.27-.037.531-.068.781-.095.25-.03.467-.065.651-.105l-.09-.803c-.261.05-.534.094-.821.13-.287.034-.575.074-.862.12a5.747 5.747 0 00-.816.186 2.6 2.6 0 00-.706.337 2.475 2.475 0 00-.941 1.199c-.08.203-.147.463-.2.777-.051.314-.087.642-.111.983-.02.341-.023.654-.01.938.024.616.136 1.136.336 1.56.2.425.481.748.841.969zm2.554-1.004c-.271.325-.668.487-1.192.487-.514 0-.908-.159-1.182-.477-.273-.317-.41-.755-.41-1.314 0-.555.135-.991.405-1.31.274-.32.668-.48 1.182-.48.507 0 .901.16 1.182.48.28.319.42.755.42 1.31 0 .542-.135.977-.405 1.304zm-162.308 1.18V14.15h5.629v7.224h-.892v-6.376h-3.845v6.376h-.892zm9.375.15c-.53 0-.994-.117-1.392-.351a2.459 2.459 0 01-.921-.989c-.22-.424-.33-.92-.33-1.484 0-.593.108-1.104.325-1.536.217-.434.52-.769.906-1.003.39-.237.848-.356 1.372-.356.544 0 1.007.125 1.387.376.384.251.671.609.862 1.074.193.465.277 1.018.25 1.66h-4.148c.033.52.174.93.422 1.234.288.351.697.527 1.227.527.358 0 .668-.082.932-.246.263-.164.47-.4.62-.707l.857.296c-.21.478-.528.85-.952 1.114-.42.26-.892.39-1.417.39zm1.152-4.42c.206.26.333.624.383 1.094h-3.205c.053-.44.188-.793.403-1.059.288-.354.707-.531 1.257-.531.514 0 .902.165 1.162.496zm3.623 4.043c.348.251.775.377 1.282.377.504 0 .937-.126 1.297-.377a2.44 2.44 0 00.836-1.028c.194-.431.291-.918.291-1.46 0-.541-.097-1.028-.291-1.46a2.37 2.37 0 00-.836-1.018c-.36-.25-.791-.376-1.292-.376-.507 0-.936.124-1.287.371-.153.11-.29.236-.41.381v-.602h-.796v7.826h.896v-2.908c.095.101.198.192.31.274zm-.41-2.488c0-.401.057-.754.17-1.058.114-.308.285-.547.516-.718.23-.173.52-.26.871-.26.367 0 .669.09.906.27.241.181.418.425.531.733.117.308.175.652.175 1.033 0 .385-.058.733-.175 1.044a1.633 1.633 0 01-.526.732c-.233.18-.529.271-.886.271-.364 0-.662-.087-.896-.26a1.567 1.567 0 01-.52-.728 3.16 3.16 0 01-.166-1.059zm5.209 2.714v-5.418h2.303c.137 0 .284.009.44.026.161.013.306.038.436.075.291.077.529.236.716.476.19.238.286.539.286.903 0 .204-.032.382-.096.532-.06.15-.146.281-.26.391a1.076 1.076 0 01-.345.231c.116.02.235.065.355.136.19.103.339.249.446.436.11.187.165.426.165.717 0 .368-.089.673-.265.913a1.352 1.352 0 01-.732.492c-.13.037-.273.062-.43.075a7.18 7.18 0 01-.456.015h-2.563zm.901-.727h1.612c.07 0 .154-.007.251-.02.1-.014.188-.03.265-.05a.596.596 0 00.375-.281.862.862 0 00.121-.447.748.748 0 00-.181-.521.768.768 0 00-.465-.251.975.975 0 00-.231-.035 5.115 5.115 0 00-.215-.005h-1.532v1.61zm0-2.348h1.342c.093 0 .192-.005.295-.015.104-.013.194-.035.271-.065a.601.601 0 00.335-.281.897.897 0 00.11-.436.855.855 0 00-.12-.457.598.598 0 00-.355-.276 1.1 1.1 0 00-.361-.065 6.538 6.538 0 00-.25-.01h-1.267v1.605zm5.462 2.86c.391.244.855.366 1.392.366.538 0 1.002-.12 1.392-.361.391-.245.691-.58.901-1.009.211-.431.316-.93.316-1.495 0-.558-.105-1.052-.316-1.48a2.339 2.339 0 00-.896-1.008c-.39-.244-.856-.366-1.397-.366-.527 0-.986.12-1.377.361-.39.238-.692.57-.906.998-.214.428-.321.927-.321 1.495 0 .559.106 1.054.316 1.485.21.432.509.77.896 1.014zm2.644-1.044c-.274.375-.691.562-1.252.562-.544 0-.956-.184-1.237-.552-.28-.368-.42-.856-.42-1.465 0-.394.06-.742.18-1.043.12-.301.302-.537.546-.707.244-.171.554-.256.931-.256.554 0 .97.182 1.247.547.277.36.416.847.416 1.46 0 .595-.137 1.08-.411 1.454zm4.803 1.41c-.531 0-.995-.117-1.392-.351a2.463 2.463 0 01-.922-.989c-.22-.424-.33-.92-.33-1.484 0-.593.108-1.104.325-1.536.217-.434.52-.769.907-1.003.39-.237.848-.356 1.372-.356.544 0 1.006.125 1.387.376.384.251.671.609.861 1.074.194.465.277 1.018.25 1.66h-4.148c.034.52.175.93.423 1.234.287.351.696.527 1.227.527.357 0 .667-.082.931-.246.264-.164.471-.4.621-.707l.856.296c-.21.478-.527.85-.951 1.114-.421.26-.893.39-1.417.39zm1.151-4.42c.206.26.334.624.383 1.094h-3.205c.054-.44.188-.793.404-1.059.287-.354.706-.531 1.257-.531.514 0 .901.165 1.161.496zm4.422-1.149v5.418h2.564c.147 0 .298-.005.455-.015.157-.013.301-.038.431-.075.31-.09.554-.254.731-.492.177-.24.265-.545.265-.913 0-.29-.055-.53-.165-.717a1.122 1.122 0 00-.445-.436 1.072 1.072 0 00-.356-.136.939.939 0 00.18-.095 1.135 1.135 0 00.426-.527 1.37 1.37 0 00.095-.532c0-.364-.095-.665-.285-.903a1.31 1.31 0 00-.716-.476 2.332 2.332 0 00-.436-.075 4.184 4.184 0 00-.441-.026h-2.303zm2.514 4.69h-1.613v-1.61h1.533c.063 0 .135.002.215.006.083.003.16.015.23.035a.77.77 0 01.466.25c.12.134.18.308.18.522 0 .16-.04.31-.12.447a.598.598 0 01-.376.28c-.076.02-.165.037-.265.05-.097.014-.18.02-.25.02zm-.271-2.347h-1.342v-1.605h1.267c.037 0 .12.003.25.01a1.1 1.1 0 01.361.065.6.6 0 01.356.276c.08.13.12.283.12.456a.897.897 0 01-.11.437.603.603 0 01-.336.28c-.077.031-.167.053-.27.066-.104.01-.202.015-.296.015zm3.209 3.075l-.005-5.418h.897v1.962h.826c.157 0 .317.003.481.01.163.007.305.022.425.045.281.057.526.152.736.286.21.134.374.314.491.542.117.227.175.51.175.848 0 .468-.122.839-.365 1.113-.241.271-.556.452-.947.542a2.85 2.85 0 01-.46.06c-.171.007-.333.01-.486.01h-1.768zm.892-.737h.891c.1 0 .212-.003.335-.01.124-.007.234-.024.331-.05a.994.994 0 00.456-.296c.136-.147.205-.358.205-.632 0-.278-.067-.492-.2-.643a.926.926 0 00-.516-.296 1.776 1.776 0 00-.306-.045 4.925 4.925 0 00-.305-.01h-.891v1.982zm3.755.737v-5.418h.891v5.418h-.891zm3.178-.215c.384.244.85.366 1.397.366.561 0 1.04-.134 1.437-.402.398-.267.69-.653.877-1.158l-.902-.236c-.12.308-.297.543-.53.707-.234.16-.528.241-.882.241-.537 0-.943-.184-1.217-.552-.27-.371-.408-.858-.415-1.46.003-.39.063-.737.18-1.038.117-.304.296-.542.536-.712.24-.174.546-.261.916-.261.331 0 .623.087.877.26.257.174.442.419.555.733l.882-.266a2.032 2.032 0 00-.832-1.154c-.41-.28-.901-.421-1.472-.421-.541 0-1.003.12-1.387.361-.384.24-.679.577-.886 1.008-.204.428-.309.925-.315 1.49.006.552.11 1.044.31 1.475.2.432.491.771.871 1.018zm4.728.215v-5.418h.861v4.606h1.862v-4.606h.862v4.606h1.857v-4.606h.862v5.418h-6.304zm8.653-.2c.397.234.861.35 1.392.35.524 0 .996-.13 1.417-.39.424-.265.741-.636.951-1.114l-.856-.296c-.15.308-.357.543-.621.707a1.729 1.729 0 01-.931.246c-.531 0-.94-.176-1.227-.527-.249-.303-.389-.715-.423-1.234h4.148c.027-.642-.057-1.195-.25-1.66a2.27 2.27 0 00-.861-1.074c-.381-.25-.843-.376-1.387-.376-.525 0-.982.119-1.372.356a2.38 2.38 0 00-.907 1.003c-.217.432-.325.944-.325 1.536 0 .565.11 1.06.33 1.484.221.422.528.751.922.989zm2.926-2.975c-.049-.47-.177-.835-.383-1.094-.26-.33-.647-.496-1.161-.496-.551 0-.97.177-1.257.531-.216.267-.35.62-.404 1.059h3.205zm4.382 3.326c-.53 0-.994-.117-1.392-.351a2.454 2.454 0 01-.921-.989c-.22-.424-.33-.92-.33-1.484 0-.593.108-1.104.325-1.536.217-.434.519-.769.906-1.003.391-.237.848-.356 1.372-.356.544 0 1.007.125 1.387.376.384.251.671.609.862 1.074.193.465.277 1.018.25 1.66h-4.148c.033.52.174.93.423 1.234.287.351.696.527 1.226.527.357 0 .668-.082.932-.246.263-.164.47-.4.621-.707l.856.296c-.211.478-.528.85-.952 1.114-.42.26-.893.39-1.417.39zm1.152-4.42c.206.26.333.624.383 1.094h-3.205c.053-.44.188-.793.404-1.059.287-.354.706-.531 1.256-.531.514 0 .902.165 1.162.496zm5.859-.336v4.605h.891V16.77h1.883v-.813h-4.657v.813h1.883zm6.065 4.756c-.531 0-.995-.117-1.392-.351a2.454 2.454 0 01-.921-.989c-.221-.424-.331-.92-.331-1.484 0-.593.109-1.104.326-1.536.217-.434.519-.769.906-1.003.39-.237.848-.356 1.372-.356.544 0 1.006.125 1.387.376.384.251.671.609.861 1.074.194.465.277 1.018.25 1.66h-4.148c.034.52.175.93.423 1.234.287.351.696.527 1.227.527.357 0 .667-.082.931-.246.264-.164.471-.4.621-.707l.856.296c-.21.478-.527.85-.951 1.114-.421.26-.893.39-1.417.39zm1.152-4.42c.205.26.333.624.382 1.094h-3.205c.054-.44.189-.793.404-1.059.287-.354.706-.531 1.257-.531.514 0 .901.165 1.162.496zm3.693 1.53l-2.068 2.74h1.066l1.523-2.047 1.512 2.046h1.066l-2.073-2.739 2.023-2.679h-1.061l-1.467 1.987-1.483-1.987h-1.061l2.023 2.68zm3.897 2.74v-5.419h.891v2.283h2.844v-2.283h.891v5.418h-.891v-2.287h-2.844v2.287h-.891zm10.455 0v-5.419h-.731l-2.839 3.938v-3.938h-.861v5.418h.736l2.834-3.993v3.993h.861zm4.658 0v-1.952c-.181.09-.399.167-.656.23a3.358 3.358 0 01-.817.096c-.55 0-.994-.124-1.332-.371-.337-.248-.557-.604-.66-1.069a3.552 3.552 0 01-.066-.436 12.02 12.02 0 01-.025-.683v-1.234h.902v1.235c0 .097.003.217.01.36.006.141.023.278.05.412.067.331.205.58.415.747.214.168.514.251.902.251.26 0 .5-.033.721-.1.22-.067.405-.155.556-.266v-2.639h.896v5.418h-.896zm3.251-.201c.397.234.861.35 1.392.35.524 0 .997-.13 1.417-.39.424-.265.741-.636.952-1.114l-.857-.296c-.15.308-.357.543-.621.707a1.727 1.727 0 01-.931.246c-.531 0-.94-.176-1.227-.527-.248-.303-.389-.715-.422-1.234h4.148c.026-.642-.057-1.195-.251-1.66a2.265 2.265 0 00-.861-1.074c-.38-.25-.843-.376-1.387-.376-.524 0-.981.119-1.372.356a2.385 2.385 0 00-.906 1.003c-.217.432-.326.944-.326 1.536 0 .565.11 1.06.331 1.484.22.422.527.751.921.989zm2.927-2.975c-.05-.47-.177-.835-.383-1.094-.261-.33-.648-.496-1.162-.496-.551 0-.97.177-1.257.531-.215.267-.35.62-.404 1.059h3.206zm4.317 3.326c-.548 0-1.013-.122-1.397-.366a2.384 2.384 0 01-.872-1.019c-.2-.431-.303-.923-.31-1.475.007-.565.112-1.061.316-1.49.206-.431.502-.767.886-1.008.384-.24.846-.361 1.387-.361.571 0 1.061.14 1.472.421.414.281.691.666.831 1.154l-.881.266a1.454 1.454 0 00-.556-.732 1.513 1.513 0 00-.876-.261c-.371 0-.676.087-.917.26-.24.171-.418.409-.535.713a2.937 2.937 0 00-.181 1.038c.007.602.146 1.089.416 1.46.274.368.679.552 1.217.552.354 0 .647-.08.881-.24a1.5 1.5 0 00.531-.708l.901.236c-.187.505-.479.89-.876 1.158-.397.268-.876.402-1.437.402zm3.335-5.569l-.005 5.418h.906v-2.608l2.459 2.608h1.247l-2.669-2.709 2.388-2.709h-1.156l-2.269 2.609v-2.609h-.901zm7.311 5.569c-.538 0-1.002-.122-1.392-.366a2.426 2.426 0 01-.897-1.014c-.21-.431-.315-.926-.315-1.485 0-.568.107-1.067.32-1.495.214-.428.516-.76.907-.998.39-.24.849-.361 1.377-.361.54 0 1.006.122 1.397.366.39.24.689.577.896 1.008.21.428.315.922.315 1.48 0 .566-.105 1.064-.315 1.495-.21.428-.511.764-.901 1.009-.391.24-.855.36-1.392.36zm0-.848c.56 0 .978-.187 1.251-.562.274-.374.411-.86.411-1.455 0-.612-.138-1.098-.416-1.46-.277-.364-.692-.546-1.246-.546-.378 0-.688.085-.932.256-.243.17-.425.406-.546.707-.12.3-.18.649-.18 1.043 0 .609.14 1.097.421 1.465.28.368.693.552 1.237.552zm4.662.497c.397.234.861.35 1.392.35.524 0 .997-.13 1.417-.39.424-.265.741-.636.952-1.114l-.857-.296c-.15.308-.357.543-.62.707a1.732 1.732 0 01-.932.246c-.531 0-.94-.176-1.227-.527-.248-.303-.389-.715-.422-1.234h4.148c.026-.642-.057-1.195-.251-1.66a2.265 2.265 0 00-.861-1.074c-.38-.25-.843-.376-1.387-.376-.524 0-.981.119-1.372.356a2.385 2.385 0 00-.906 1.003c-.217.432-.326.944-.326 1.536 0 .565.111 1.06.331 1.484.22.422.527.751.921.989zm2.927-2.975c-.05-.47-.177-.835-.383-1.094-.26-.33-.648-.496-1.162-.496-.551 0-.97.177-1.257.531-.215.267-.35.62-.403 1.059h3.205zm4.795 5.583l.891-2.426-2.193-5.4h.936l1.687 4.263 1.583-4.263h.906l-2.944 7.826h-.866zm7.892-4.36v1.952h.896v-5.418h-.896v2.64c-.15.11-.336.198-.556.265-.22.067-.461.1-.721.1-.387 0-.688-.083-.901-.25-.211-.168-.349-.417-.416-.748a2.773 2.773 0 01-.05-.411 7.561 7.561 0 01-.01-.361v-1.235h-.901v1.235a9.91 9.91 0 00.025.682c.013.15.035.296.065.436.103.465.324.821.661 1.069.337.247.781.37 1.332.37.29 0 .562-.03.816-.094.257-.064.476-.14.656-.231zm4.643 2.103c-.53 0-.994-.117-1.392-.351a2.454 2.454 0 01-.921-.989c-.22-.424-.33-.92-.33-1.484 0-.593.108-1.104.325-1.536.217-.434.519-.769.906-1.003.391-.237.848-.356 1.372-.356.544 0 1.007.125 1.387.376.384.251.671.609.862 1.074.193.465.277 1.018.25 1.66h-4.148c.033.52.174.93.423 1.234.287.351.696.527 1.226.527.358 0 .668-.082.932-.246.263-.164.47-.4.621-.707l.856.296c-.21.478-.528.85-.952 1.114-.42.26-.893.39-1.417.39zm1.152-4.42c.206.26.333.624.383 1.094h-3.205c.053-.44.188-.793.404-1.059.287-.354.706-.531 1.256-.531.514 0 .902.165 1.162.496zm8.314 4.27v-5.419h.891v2.283h2.844v-2.283h.892v5.418h-.892v-2.287h-2.844v2.287h-.891zm6.941-.216c.39.244.854.366 1.392.366.537 0 1.001-.12 1.392-.361.39-.245.691-.58.901-1.009.21-.431.315-.93.315-1.495 0-.558-.105-1.052-.315-1.48a2.351 2.351 0 00-.896-1.008c-.391-.244-.857-.366-1.397-.366-.528 0-.987.12-1.377.361-.391.238-.693.57-.907.998-.213.428-.32.927-.32 1.495 0 .559.105 1.054.315 1.485.211.432.509.77.897 1.014zm2.643-1.044c-.273.375-.691.562-1.251.562-.544 0-.957-.184-1.237-.552-.281-.368-.421-.856-.421-1.465 0-.394.06-.742.18-1.043.121-.301.303-.537.546-.707.244-.171.554-.256.932-.256.554 0 .969.182 1.246.547.277.36.416.847.416 1.46 0 .595-.137 1.08-.411 1.454zm4.803 1.41c-.531 0-.995-.117-1.392-.351a2.454 2.454 0 01-.921-.989c-.22-.424-.331-.92-.331-1.484 0-.593.109-1.104.326-1.536.217-.434.519-.769.906-1.003.391-.237.848-.356 1.372-.356.544 0 1.007.125 1.387.376.384.251.671.609.861 1.074.194.465.277 1.018.251 1.66h-4.148c.033.52.174.93.422 1.234.287.351.696.527 1.227.527.357 0 .668-.082.932-.246.263-.164.47-.4.62-.707l.857.296c-.211.478-.528.85-.952 1.114-.42.26-.893.39-1.417.39zm1.152-4.42c.206.26.333.624.383 1.094h-3.205c.053-.44.188-.793.403-1.059.287-.354.706-.531 1.257-.531.514 0 .902.165 1.162.496zm4.947 4.074c.411.23.883.346 1.417.346a2.66 2.66 0 001.052-.2 1.79 1.79 0 00.746-.583c.187-.254.28-.558.28-.913 0-.21-.035-.413-.105-.607a1.289 1.289 0 00-.568-.683 1.475 1.475 0 00.523-1.153c0-.338-.087-.624-.26-.858a1.573 1.573 0 00-.691-.536 2.381 2.381 0 00-.952-.186c-.43 0-.829.079-1.196.236a2.942 2.942 0 00-.967.662l.541.607c.197-.19.432-.348.706-.472.274-.127.561-.19.861-.19.284 0 .528.065.731.195.207.127.311.331.311.612 0 .275-.11.469-.331.582-.22.114-.505.17-.856.17h-.556v.738h.561c.277 0 .516.022.716.066.2.043.354.122.461.235.107.114.16.278.16.492a.83.83 0 01-.326.687c-.217.167-.509.251-.876.251-.35 0-.662-.079-.936-.236a2.155 2.155 0 01-.706-.687l-.711.461c.237.409.561.73.971.964zm6.131.346c-.403 0-.742-.074-1.016-.221a1.573 1.573 0 01-.616-.592 1.612 1.612 0 01-.205-.803c0-.284.053-.53.16-.737.11-.21.264-.385.461-.522.197-.14.432-.25.706-.33.257-.071.544-.131.861-.181.32-.054.644-.102.971-.146l.596-.08c-.01-.411-.107-.72-.29-.928-.2-.23-.548-.346-1.042-.346-.327 0-.614.075-.861.225-.244.148-.416.388-.516.723l-.846-.256a1.98 1.98 0 01.756-1.119c.374-.27.866-.406 1.477-.406.491 0 .912.089 1.262.266.354.174.608.438.761.792.077.168.125.35.145.547.021.194.031.398.031.612v3.351h-.792v-.843c-.18.276-.404.495-.671.658-.363.224-.807.336-1.332.336zm.136-.748c.32 0 .597-.057.831-.17.237-.117.427-.27.571-.457.143-.19.237-.398.28-.622.05-.167.077-.353.08-.557.004-.114.007-.213.008-.298-.183.025-.364.05-.544.073-.28.036-.545.077-.796.12-.25.04-.475.089-.676.146a2.183 2.183 0 00-.415.18.945.945 0 00-.311.286.744.744 0 00-.115.426c0 .148.037.288.11.422a.855.855 0 00.351.326c.16.083.369.125.626.125zm3.955-4.82v5.417h2.564c.147 0 .299-.005.456-.015.157-.013.3-.038.43-.075.311-.09.555-.254.731-.492.177-.24.266-.545.266-.913 0-.29-.055-.53-.165-.717a1.124 1.124 0 00-.446-.436 1.064 1.064 0 00-.356-.136 1.076 1.076 0 00.346-.23c.113-.111.2-.241.26-.392.064-.15.095-.328.095-.532 0-.364-.095-.665-.285-.903a1.31 1.31 0 00-.716-.476 2.304 2.304 0 00-.436-.075 4.166 4.166 0 00-.44-.026h-2.304zm2.514 4.69h-1.612v-1.61h1.532c.063 0 .135.001.215.005.084.003.16.015.231.035a.771.771 0 01.465.25c.12.134.181.308.181.522 0 .16-.041.31-.121.447a.596.596 0 01-.375.28c-.077.02-.165.037-.266.05a1.85 1.85 0 01-.25.02zm-.27-2.348h-1.342v-1.605h1.267c.036 0 .12.003.25.01.133.003.254.025.36.065.161.05.279.142.356.276.08.13.12.283.12.456a.897.897 0 01-.11.437.6.6 0 01-.336.28c-.076.031-.166.053-.27.066-.103.01-.202.015-.295.015zm5.552 3.226c-.531 0-.995-.117-1.392-.351a2.454 2.454 0 01-.921-.989c-.221-.424-.331-.92-.331-1.484 0-.593.109-1.104.326-1.536.217-.434.519-.769.906-1.003.391-.237.848-.356 1.372-.356.544 0 1.007.125 1.387.376.384.251.671.609.861 1.074.194.465.277 1.018.251 1.66h-4.148c.033.52.174.93.422 1.234.287.351.696.527 1.227.527.357 0 .668-.082.931-.246.264-.164.471-.4.621-.707l.857.296c-.211.478-.528.85-.952 1.114-.42.26-.893.39-1.417.39zm1.152-4.42c.206.26.333.624.383 1.094h-3.206c.054-.44.189-.793.404-1.059.287-.354.706-.531 1.257-.531.514 0 .901.165 1.162.496zm2.021 3.532v1.941h.851v-1.204h3.806v1.204h.851v-1.941h-.526v-4.68h-3.725c-.024.514-.049.974-.075 1.379-.024.401-.052.766-.085 1.094-.034.327-.077.635-.131.923-.08.458-.185.787-.315.988-.13.197-.347.296-.651.296zm4.091 0h-2.719c.123-.12.214-.268.27-.442.057-.174.107-.386.15-.637.037-.18.069-.384.096-.612a33.507 33.507 0 00.175-2.252h2.028v3.943zm4.765.888c-.531 0-.995-.117-1.392-.351a2.454 2.454 0 01-.921-.989c-.22-.424-.331-.92-.331-1.484 0-.593.109-1.104.326-1.536.217-.434.519-.769.906-1.003.391-.237.848-.356 1.372-.356.544 0 1.007.125 1.387.376.384.251.671.609.861 1.074.194.465.277 1.018.251 1.66h-4.148c.033.52.174.93.422 1.234.287.351.696.527 1.227.527.357 0 .668-.082.932-.246.263-.164.47-.4.62-.707l.857.296c-.211.478-.528.85-.952 1.114-.42.26-.893.39-1.417.39zm1.152-4.42c.206.26.333.624.383 1.094h-3.205c.053-.44.188-.793.403-1.059.287-.354.706-.531 1.257-.531.514 0 .902.165 1.162.496zm2.417-1.149v5.418h.891v-2.287h2.844v2.287h.891v-5.418h-.891v2.283h-2.844v-2.283h-.891zm10.455 0v5.418h-.861v-3.993l-2.834 3.993h-.736v-5.418h.861v3.938l2.839-3.938h.731zm2.354 5.218c.397.234.861.35 1.392.35.524 0 .996-.13 1.417-.39.424-.265.741-.636.951-1.114l-.856-.296c-.15.308-.357.543-.621.707a1.727 1.727 0 01-.931.246c-.531 0-.94-.176-1.227-.527-.248-.303-.389-.715-.423-1.234h4.149c.026-.642-.057-1.195-.251-1.66a2.265 2.265 0 00-.861-1.074c-.381-.25-.843-.376-1.387-.376-.524 0-.981.119-1.372.356a2.385 2.385 0 00-.906 1.003c-.217.432-.326.944-.326 1.536 0 .565.11 1.06.331 1.484.22.422.527.751.921.989zm2.927-2.975c-.05-.47-.177-.835-.383-1.094-.261-.33-.648-.496-1.162-.496-.551 0-.97.177-1.257.531-.215.267-.35.62-.404 1.059h3.206zm4.038 3.175v-5.418h2.304c.136 0 .283.009.44.026.16.013.306.038.436.075.29.077.529.236.716.476.19.238.285.539.285.903 0 .204-.031.382-.095.532a1.121 1.121 0 01-.606.622c.117.02.236.065.356.136.19.103.339.249.445.436.111.187.166.426.166.717 0 .368-.089.673-.266.913a1.35 1.35 0 01-.731.492c-.13.037-.273.062-.43.075a7.18 7.18 0 01-.456.015h-2.564zm.902-.727h1.612c.07 0 .153-.007.25-.02.1-.014.189-.03.266-.05a.598.598 0 00.375-.281.87.87 0 00.12-.447.752.752 0 00-.18-.521.77.77 0 00-.466-.251.966.966 0 00-.23-.035 5.115 5.115 0 00-.215-.005h-1.532v1.61zm0-2.348h1.342c.093 0 .191-.005.295-.015a1.14 1.14 0 00.27-.065.6.6 0 00.336-.281.897.897 0 00.11-.436.855.855 0 00-.12-.457.597.597 0 00-.356-.276 1.098 1.098 0 00-.36-.065 6.485 6.485 0 00-.251-.01h-1.266v1.605zm6.555-4.149v7.224h.892v-2.668h1.958a3.7 3.7 0 00.53-.04 2.06 2.06 0 00.977-.402c.267-.21.467-.473.601-.788.136-.317.205-.667.205-1.048 0-.385-.067-.734-.2-1.049a1.927 1.927 0 00-.601-.787 2.067 2.067 0 00-.982-.401 1.894 1.894 0 00-.28-.03 3.692 3.692 0 00-.25-.01h-2.85zm2.82 3.708h-1.928v-2.86h1.928c.063 0 .135.004.215.01.083.004.162.015.235.035.231.05.417.148.561.291.147.144.254.313.32.507a1.758 1.758 0 010 1.179 1.28 1.28 0 01-.32.502c-.144.14-.33.237-.561.29a1.642 1.642 0 01-.235.036c-.08.006-.152.01-.215.01zm5.645 3.667c-.537 0-1.001-.122-1.392-.366a2.424 2.424 0 01-.896-1.014c-.211-.431-.316-.926-.316-1.485 0-.568.107-1.067.321-1.495a2.38 2.38 0 01.906-.998c.391-.24.85-.361 1.377-.361.541 0 1.006.122 1.397.366.391.24.689.577.896 1.008.211.428.316.922.316 1.48 0 .566-.105 1.064-.316 1.495-.21.428-.51.764-.901 1.009-.391.24-.855.36-1.392.36zm0-.848c.561 0 .978-.187 1.252-.562.274-.374.41-.86.41-1.455 0-.612-.138-1.098-.415-1.46-.277-.364-.693-.546-1.247-.546-.377 0-.688.085-.931.256-.244.17-.426.406-.546.707-.12.3-.18.649-.18 1.043 0 .609.14 1.097.42 1.465.281.368.693.552 1.237.552zm4.592.482c.384.244.85.366 1.398.366.56 0 1.039-.134 1.437-.402.397-.267.689-.653.876-1.158l-.901-.236a1.513 1.513 0 01-.531.707c-.234.16-.528.241-.881.241-.538 0-.944-.184-1.217-.552-.271-.371-.409-.858-.416-1.46a2.96 2.96 0 01.18-1.038c.117-.304.296-.542.536-.712.241-.174.546-.261.917-.261.33 0 .622.087.876.26.257.174.442.419.556.733l.881-.266a2.026 2.026 0 00-.831-1.154c-.411-.28-.902-.421-1.472-.421-.541 0-1.004.12-1.387.361-.384.24-.68.577-.887 1.008-.203.428-.309.925-.315 1.49.006.552.11 1.044.31 1.475.201.432.491.771.871 1.018zm6.864.366c-.547 0-1.013-.122-1.397-.366a2.382 2.382 0 01-.871-1.019 3.563 3.563 0 01-.31-1.475c.006-.565.112-1.061.315-1.49.207-.431.503-.767.886-1.008.384-.24.847-.361 1.387-.361.571 0 1.062.14 1.473.421.413.281.691.666.831 1.154l-.882.266a1.447 1.447 0 00-.555-.732 1.514 1.514 0 00-.877-.261c-.37 0-.676.087-.916.26-.24.171-.419.409-.536.713a2.915 2.915 0 00-.18 1.038c.007.602.145 1.089.416 1.46.273.368.679.552 1.216.552.354 0 .648-.08.882-.24.233-.165.41-.4.53-.708l.902.236c-.187.505-.479.89-.876 1.158-.398.268-.877.402-1.438.402zm7.762-.15v-5.419h-.731l-2.839 3.938v-3.938h-.861v5.418h.736l2.834-3.993v3.993h.861zm5.829-5.419v5.418h-.861v-3.993l-2.835 3.993h-.736v-5.418h.862v3.938l2.839-3.938h.731zM87.365 87.743c-.718 0-1.327-.16-1.828-.477-.5-.318-.883-.76-1.146-1.324-.26-.566-.391-1.22-.391-1.962s.13-1.396.39-1.961a3.062 3.062 0 011.147-1.325c.5-.317 1.11-.476 1.828-.476.72 0 1.332.159 1.833.476.5.318.88.76 1.141 1.325.26.565.39 1.219.39 1.961 0 .743-.13 1.396-.39 1.962a3.03 3.03 0 01-1.141 1.324c-.501.318-1.112.477-1.833.477zm0-.853c.537.003.985-.117 1.342-.361.36-.248.629-.59.806-1.029.18-.438.27-.945.27-1.52 0-.578-.09-1.085-.27-1.52a2.193 2.193 0 00-.806-1.018c-.357-.244-.805-.368-1.342-.371-.538-.004-.985.117-1.342.36-.354.245-.621.586-.801 1.024-.18.438-.272.947-.276 1.525-.003.575.085 1.08.266 1.515.18.435.449.776.806 1.023.36.245.81.368 1.347.372zm6.649.853c-.548 0-1.013-.122-1.397-.367a2.382 2.382 0 01-.872-1.018c-.2-.431-.303-.923-.31-1.475.007-.565.112-1.062.315-1.49a2.37 2.37 0 01.887-1.008c.384-.24.846-.361 1.387-.361.57 0 1.061.14 1.472.421.414.281.69.666.831 1.154l-.881.266a1.451 1.451 0 00-.556-.733 1.512 1.512 0 00-.876-.26c-.37 0-.676.087-.917.26a1.51 1.51 0 00-.535.713 2.929 2.929 0 00-.18 1.038c.006.602.144 1.089.415 1.46.274.368.68.552 1.217.552.354 0 .647-.08.881-.241.234-.164.41-.4.53-.707l.902.235c-.187.505-.479.892-.876 1.16-.397.267-.876.4-1.437.4zm4.221-5.569h-.891v5.418h.891v-2.287h2.844v2.287h.892v-5.418h-.892v2.283h-2.844v-2.283zm7.442 5.569c-.538 0-1.002-.122-1.392-.367a2.426 2.426 0 01-.897-1.013c-.21-.431-.315-.926-.315-1.485 0-.568.107-1.067.32-1.495.214-.428.516-.76.907-.998.39-.24.849-.361 1.377-.361.54 0 1.006.122 1.397.366.39.24.689.577.896 1.008.21.428.315.922.315 1.48 0 .565-.105 1.064-.315 1.495-.21.428-.511.764-.901 1.008-.391.241-.855.362-1.392.362zm0-.848c.56 0 .978-.188 1.251-.562.274-.375.411-.86.411-1.455 0-.612-.138-1.099-.416-1.46-.277-.364-.692-.546-1.246-.546-.378 0-.688.085-.932.255-.243.171-.425.407-.545.708a2.783 2.783 0 00-.181 1.043c0 .609.14 1.097.421 1.465.28.368.693.552 1.237.552zm6.009-4.72h-2.303v5.417h2.564a7.1 7.1 0 00.455-.015c.157-.013.301-.038.431-.075.31-.09.554-.254.731-.492.177-.24.265-.545.265-.913 0-.29-.055-.53-.165-.717a1.117 1.117 0 00-.446-.437 1.057 1.057 0 00-.355-.135 1.082 1.082 0 00.345-.23c.114-.111.201-.242.261-.392a1.37 1.37 0 00.095-.532c0-.364-.095-.665-.286-.903-.186-.24-.425-.4-.716-.476a2.307 2.307 0 00-.435-.076 4.182 4.182 0 00-.441-.025zm.21 4.69h-1.612v-1.61h1.532c.064 0 .136.001.216.004a.98.98 0 01.23.035.771.771 0 01.466.251c.12.134.18.308.18.522 0 .16-.04.31-.12.447a.598.598 0 01-.376.28c-.077.02-.165.037-.265.05-.097.014-.18.02-.251.02zm-.27-2.348h-1.342v-1.605h1.267c.037 0 .12.003.25.01.134.003.254.025.361.065.16.05.279.142.355.276.081.13.121.282.121.456a.887.887 0 01-.111.437.601.601 0 01-.335.28c-.077.03-.167.052-.27.066a3.09 3.09 0 01-.296.015zm4.746 3.226c-.404 0-.742-.074-1.016-.221a1.572 1.572 0 01-.616-.592 1.612 1.612 0 01-.205-.803c0-.284.053-.53.16-.737.11-.21.264-.385.461-.522.197-.14.432-.25.706-.331.257-.07.544-.13.861-.18.32-.054.644-.103.971-.146l.596-.08c-.01-.412-.107-.72-.29-.928-.201-.231-.548-.347-1.042-.347-.327 0-.614.076-.861.226-.244.147-.416.388-.516.723l-.846-.256a1.98 1.98 0 01.756-1.119c.374-.27.866-.406 1.477-.406.491 0 .912.088 1.262.266.354.173.608.438.761.792.077.168.125.35.145.547.02.194.03.398.03.612v3.351h-.791v-.844c-.18.276-.404.496-.671.658-.364.224-.807.337-1.332.337zm.136-.748c.32 0 .597-.057.831-.17.237-.118.427-.27.571-.457.143-.19.237-.398.28-.622.05-.167.077-.353.08-.557l.008-.298-.544.072c-.28.037-.545.077-.796.12-.25.041-.475.09-.676.146a2.183 2.183 0 00-.415.18.945.945 0 00-.311.287.744.744 0 00-.115.426c0 .147.037.288.11.422a.855.855 0 00.351.326c.16.083.369.125.626.125zm4.847-4.82h-.892v5.417h.892v-2.287h2.844v2.287h.891v-5.418h-.891v2.283h-2.844v-2.283zm7.138 0h2.303c.137 0 .284.008.44.024.161.014.306.039.436.076.291.076.529.235.716.476.19.238.286.539.286.903 0 .204-.032.381-.096.532-.06.15-.146.28-.26.391a1.082 1.082 0 01-.345.23c.116.021.235.066.355.136.19.104.339.25.446.437.11.187.165.426.165.717 0 .368-.089.672-.265.913a1.353 1.353 0 01-.732.492c-.13.037-.273.062-.43.075-.157.01-.309.015-.456.015h-2.563v-5.418zm.901 4.69h1.612a2.248 2.248 0 00.516-.07.596.596 0 00.375-.282.862.862 0 00.121-.446.748.748 0 00-.181-.522.769.769 0 00-.465-.25.98.98 0 00-.231-.036 5.29 5.29 0 00-.215-.005h-1.532v1.61zm0-2.348h1.342c.093 0 .192-.005.295-.015.104-.013.194-.035.271-.065a.601.601 0 00.335-.281.897.897 0 00.11-.437.856.856 0 00-.12-.456.598.598 0 00-.355-.276 1.102 1.102 0 00-.361-.065 6.538 6.538 0 00-.25-.01h-1.267v1.605zm7.813-3.16v6.235h.906v-7.224h-.906l-1.357.813v.998l1.357-.822zm3.192 6.235l2.593-6.366h-3.274v-.858h4.231v.858l-2.589 6.366h-.961zm7.933-6.366l-2.594 6.366h.962l2.589-6.366v-.858h-4.232v.858h3.275zm4.138 6.507c-.357 0-.689-.066-.996-.196a2.369 2.369 0 01-.797-.562 2.28 2.28 0 01-.485-.868l.856-.246a1.422 1.422 0 001.417 1.019c.294-.007.548-.074.761-.2.217-.131.384-.309.501-.533.12-.224.18-.483.18-.777 0-.448-.133-.811-.4-1.089-.267-.28-.618-.421-1.052-.421a1.644 1.644 0 00-.746.19l-.431-.707 2.342-2.122h-3.143v-.853h4.251v.858l-1.944 1.867c.336.017.639.097.908.24.357.19.634.463.831.818.2.354.3.76.3 1.219 0 .461-.103.87-.31 1.224a2.272 2.272 0 01-.841.838c-.354.2-.755.3-1.202.3zm9.416-5.559h-3.756v5.418h.891v-4.57h2.865v-.848zm3.154 5.569c-.538 0-1.002-.122-1.392-.367a2.433 2.433 0 01-.897-1.013c-.21-.431-.315-.926-.315-1.485 0-.568.107-1.067.32-1.495.214-.428.516-.76.907-.998.39-.24.849-.361 1.377-.361.541 0 1.006.122 1.397.366.39.24.689.577.896 1.008.21.428.316.922.316 1.48 0 .565-.106 1.064-.316 1.495-.21.428-.511.764-.901 1.008-.391.241-.855.362-1.392.362zm0-.848c.561 0 .978-.188 1.252-.562.273-.375.41-.86.41-1.455 0-.612-.138-1.099-.415-1.46-.277-.364-.693-.546-1.247-.546-.377 0-.688.085-.932.255-.243.171-.425.407-.545.708a2.783 2.783 0 00-.181 1.043c0 .609.141 1.097.421 1.465.28.368.693.552 1.237.552zm3.31-.04v1.941h.852v-1.204h3.805v1.204h.851v-1.941h-.525v-4.68h-3.726c-.023.514-.048.974-.075 1.379-.023.401-.052.766-.085 1.093-.033.328-.077.636-.13.923-.08.459-.185.788-.316.989-.13.197-.347.296-.651.296zm4.091 0h-2.719c.124-.12.214-.268.271-.442.057-.174.107-.386.15-.637.037-.18.068-.385.095-.612.03-.23.055-.475.075-.732a32.518 32.518 0 00.1-1.52h2.028v3.943zM175.614 90l.892-2.426-2.193-5.4h.936l1.687 4.263 1.583-4.263h.906L176.481 90h-.867zM286.26 33.454h1.622v10.158l6.769-10.158h1.623v13.003h-1.623V36.289l-6.769 10.168h-1.622V33.454zm5.074-1.138c-.456 0-.871-.111-1.243-.334a2.595 2.595 0 01-.884-.885 2.392 2.392 0 01-.333-1.246h1.298c0 .32.114.593.342.822.229.229.502.343.82.343.325 0 .598-.114.821-.343.228-.229.342-.503.342-.822h1.298c0 .458-.111.873-.334 1.246a2.461 2.461 0 01-.892.885 2.36 2.36 0 01-1.235.334zM87.009 45.87c.901.572 1.998.858 3.29.858 1.502 0 2.737-.383 3.704-1.147.974-.77 1.644-1.8 2.01-3.088l-1.631-.434c-.264.963-.736 1.728-1.415 2.294-.68.56-1.569.84-2.668.84-.968 0-1.776-.22-2.425-.66-.648-.445-1.135-1.06-1.46-1.842-.324-.788-.483-1.7-.477-2.736.006-1.041.17-1.953.495-2.736.325-.788.808-1.402 1.451-1.842.643-.44 1.449-.659 2.416-.659 1.1 0 1.989.28 2.668.84.679.56 1.15 1.324 1.415 2.293l1.631-.433c-.366-1.294-1.036-2.324-2.01-3.088-.967-.765-2.202-1.147-3.704-1.147-1.292 0-2.389.286-3.29.858-.901.572-1.59 1.366-2.064 2.384-.468 1.017-.703 2.194-.703 3.53 0 1.337.234 2.514.703 3.53.475 1.018 1.163 1.813 2.064 2.385zm16.307-12.416h-2.235l-4.344 13.003h1.667l1.016-3.043h5.548l1.025 3.043h1.667l-4.344-13.003zm1.143 8.452l-2.278-6.76-2.257 6.76h4.535zm4.815-8.452h1.604v5.734h6.832v-5.734h1.604v13.003h-1.604v-5.743h-6.832v5.743h-1.604V33.454zm14.173 0h-1.604v13.003h1.604V40.1l6.084 6.357h2.073l-6.354-6.691 5.894-6.312h-2.019l-5.678 6.104v-6.104zm12.759 13.003V34.98h-4.425v-1.526h10.455v1.526h-4.425v11.477h-1.605zm7.285-7.17v1.328h5.408v-1.328h-5.408zm7.75-5.833h10.13v13.003h-1.604V34.98h-6.922v11.477h-1.604V33.454zm20.858 0h-8.201v13.003h8.201V44.93h-6.597v-4.353h5.516v-1.526h-5.516V34.98h6.597v-1.526zm5.511 13.003V34.98h-4.425v-1.526h10.455v1.526h-4.426v11.477h-1.604zm15.667-13.003h-8.202v13.003h8.202V44.93h-6.598v-4.353h5.516v-1.526h-5.516V34.98h6.598v-1.526zm2.166 0h5.129c.126 0 .276.006.45.018.175.006.343.024.505.054.703.108 1.292.35 1.767.722.48.374.841.846 1.081 1.418.24.566.361 1.195.361 1.887 0 .687-.124 1.316-.37 1.888a3.542 3.542 0 01-1.081 1.417c-.475.373-1.061.614-1.758.723-.162.024-.33.042-.505.054a6.612 6.612 0 01-.45.018h-3.524v4.804h-1.605V33.454zm1.605 6.673h3.47c.114 0 .243-.006.387-.018.15-.012.292-.033.424-.063.414-.097.751-.271 1.009-.524.265-.259.457-.56.577-.903.12-.35.18-.704.18-1.066 0-.36-.06-.713-.18-1.056a2.306 2.306 0 00-.577-.912c-.258-.259-.595-.434-1.009-.524a1.894 1.894 0 00-.424-.063 4.712 4.712 0 00-.387-.018h-3.47v5.147zm17.723-6.673h-8.238v13.003h5.129c.126 0 .276-.006.451-.018.174-.012.342-.028.504-.045.691-.09 1.274-.32 1.749-.687.48-.373.844-.843 1.09-1.408.247-.566.37-1.183.37-1.852 0-.674-.126-1.294-.379-1.86a3.478 3.478 0 00-1.09-1.4c-.475-.372-1.055-.601-1.74-.685a4.472 4.472 0 00-.504-.046 6.664 6.664 0 00-.451-.018h-3.524V34.98h6.633v-1.526zm-3.163 11.477h-3.47v-4.967h3.47c.114 0 .243.006.387.018.151.006.292.025.424.055.625.126 1.076.424 1.352.894.276.463.415.969.415 1.517 0 .535-.139 1.04-.415 1.517-.276.469-.727.767-1.352.893a4.225 4.225 0 01-.424.055 4.668 4.668 0 01-.387.018zm8.044 1.526l1.55-3.224-4.57-9.78h1.794l3.614 8.064 3.695-8.063h1.713l-6.057 13.003h-1.739zm14.419-13.003h-5.128v13.003h1.604v-4.804h3.524c.126 0 .277-.006.451-.018.174-.012.342-.03.505-.054.697-.109 1.282-.35 1.757-.723.481-.379.841-.851 1.082-1.417.246-.572.369-1.201.369-1.888 0-.692-.12-1.32-.36-1.887a3.464 3.464 0 00-1.082-1.417c-.475-.374-1.063-.614-1.766-.723a3.425 3.425 0 00-.505-.054 6.64 6.64 0 00-.451-.018zm-.054 6.673h-3.47V34.98h3.47c.114 0 .244.006.388.018.15.006.291.027.423.063.415.09.751.265 1.01.524.264.259.456.563.577.912.12.343.18.695.18 1.056 0 .362-.06.717-.18 1.066a2.34 2.34 0 01-.577.903c-.259.253-.595.427-1.01.524-.132.03-.273.05-.423.063a4.69 4.69 0 01-.388.018zm6.016-6.673h8.202v1.526h-6.598v11.477h-1.604V33.454zm11.693 12.416c.901.572 1.998.858 3.29.858 1.502 0 2.737-.383 3.704-1.147.973-.77 1.643-1.8 2.01-3.088l-1.632-.434c-.264.963-.736 1.728-1.415 2.294-.679.56-1.568.84-2.667.84-.968 0-1.776-.22-2.425-.66-.649-.445-1.136-1.06-1.46-1.842-.325-.788-.484-1.7-.478-2.736.006-1.041.171-1.953.496-2.736.324-.788.808-1.402 1.451-1.842.643-.44 1.448-.659 2.416-.659 1.099 0 1.988.28 2.667.84.679.56 1.151 1.324 1.415 2.293l1.632-.433c-.367-1.294-1.037-2.324-2.01-3.088-.967-.765-2.202-1.147-3.704-1.147-1.292 0-2.389.286-3.29.858-.902.572-1.59 1.366-2.064 2.384-.469 1.017-.703 2.194-.703 3.53 0 1.337.234 2.514.703 3.53.474 1.018 1.162 1.813 2.064 2.385zm10.98-12.416h1.605v6.104l5.678-6.104h2.019l-5.895 6.312 6.355 6.69h-2.073l-6.084-6.356v6.357h-1.605V33.454zm19.411 13.003h1.623V33.454h-1.623l-6.768 10.158V33.454h-1.623v13.003h1.623l6.768-10.168v10.168zm-197.154 9.07v13.002h1.605V57.053h6.597v-1.526h-8.202zM99.946 68.8c-1.292 0-2.389-.286-3.29-.858-.901-.571-1.59-1.366-2.064-2.383-.469-1.018-.703-2.195-.703-3.531 0-1.337.234-2.513.703-3.53.475-1.018 1.163-1.813 2.064-2.384.901-.572 1.998-.858 3.29-.858 1.298 0 2.397.286 3.298.858.902.571 1.587 1.366 2.055 2.383.469 1.018.703 2.194.703 3.53 0 1.337-.234 2.514-.703 3.531-.468 1.018-1.153 1.813-2.055 2.384-.901.572-2 .858-3.298.858zm0-1.535c.967.006 1.772-.21 2.415-.65.649-.445 1.133-1.063 1.451-1.851.325-.789.487-1.7.487-2.736 0-1.041-.162-1.953-.487-2.736-.318-.783-.802-1.394-1.451-1.833-.643-.44-1.448-.662-2.415-.668-.968-.006-1.773.21-2.416.65-.637.44-1.117 1.053-1.442 1.842-.324.788-.49 1.703-.496 2.745-.006 1.035.154 1.944.478 2.727.325.782.808 1.397 1.451 1.842.65.44 1.457.662 2.425.668zm12.995-11.739h-5.128V68.53h1.604v-4.803h3.524c.126 0 .276-.007.451-.019.174-.012.342-.03.504-.054.697-.108 1.283-.349 1.758-.722.481-.38.841-.852 1.082-1.418.246-.572.369-1.2.369-1.887 0-.692-.12-1.321-.36-1.887a3.464 3.464 0 00-1.082-1.418c-.475-.373-1.064-.614-1.767-.722a3.397 3.397 0 00-.504-.054 6.664 6.664 0 00-.451-.019zm-.054 6.673h-3.47v-5.146h3.47c.114 0 .243.006.388.018.15.006.291.027.423.063.415.09.751.265 1.01.523.264.26.456.563.576.913.121.343.181.695.181 1.056 0 .361-.06.716-.181 1.066-.12.343-.312.644-.576.902-.259.253-.595.428-1.01.524-.132.03-.273.051-.423.063a4.71 4.71 0 01-.388.019zm6.016-6.672h1.604v5.733h6.832v-5.733h1.604v13.002h-1.604v-5.743h-6.832v5.743h-1.604V55.527zm14.164 0h-1.604v13.002h5.128c.126 0 .277-.006.451-.018.174-.012.342-.03.505-.054.703-.108 1.292-.35 1.766-.722.481-.38.841-.852 1.082-1.418.24-.572.36-1.2.36-1.887 0-.693-.123-1.322-.369-1.887a3.464 3.464 0 00-1.082-1.418c-.475-.373-1.06-.614-1.757-.722a3.425 3.425 0 00-.505-.055 6.705 6.705 0 00-.451-.018h-3.524v-4.803zm3.47 11.476h-3.47v-5.147h3.47c.114 0 .244.006.388.018.15.006.291.027.423.064.415.09.751.264 1.01.523.264.26.456.563.577.912.12.344.18.696.18 1.057s-.06.716-.18 1.065a2.34 2.34 0 01-.577.903c-.259.253-.595.428-1.01.524-.132.03-.273.051-.423.063a4.69 4.69 0 01-.388.018zm7.102-11.477h-1.604V68.53h1.604V55.527zm2.532 0h1.622v10.159l6.769-10.159h1.622V68.53h-1.622V58.362l-6.769 10.167h-1.622V55.527zm5.074-1.137c-.456 0-.871-.112-1.244-.334a2.592 2.592 0 01-.883-.885 2.391 2.391 0 01-.333-1.246h1.297c0 .319.115.593.343.821.228.23.502.344.82.344.325 0 .598-.115.82-.344a1.12 1.12 0 00.343-.821h1.298c0 .457-.111.873-.334 1.246a2.47 2.47 0 01-.892.885 2.362 2.362 0 01-1.235.334zm14.646 10.917l-1.55 3.223h1.74l6.057-13.002h-1.713l-3.695 8.063-3.615-8.064h-1.793l4.569 9.78zm7.741-9.78h1.605v5.734h6.832v-5.733h1.604v13.002h-1.604v-5.743h-6.832v5.743h-1.605V55.527zm20.96 13.003h1.623V55.527h-1.623l-6.768 10.158V55.526h-1.623V68.53h1.623l6.768-10.167v10.167zm4.143-13.002h5.056c.776 0 1.436.16 1.983.478.553.32.974.74 1.262 1.264.295.518.442 1.078.442 1.68 0 .704-.181 1.321-.541 1.85a2.74 2.74 0 01-.902.847 3.333 3.333 0 011.371 1.032c.462.596.694 1.306.694 2.131 0 .759-.157 1.415-.469 1.969a3.174 3.174 0 01-1.334 1.29c-.577.308-1.262.461-2.055.461h-5.507V55.527zm1.622 11.467h3.579c.48 0 .91-.087 1.288-.262.379-.18.676-.433.893-.758.222-.325.333-.717.333-1.174 0-.44-.099-.834-.297-1.183a2.136 2.136 0 00-.82-.83c-.349-.211-.754-.317-1.217-.317h-3.759v4.524zm0-6.04h3.416c.385 0 .73-.082 1.037-.244.312-.169.559-.404.739-.705.186-.3.279-.653.279-1.056 0-.56-.189-1.018-.567-1.373-.379-.355-.875-.532-1.488-.532h-3.416v3.91zm17.741-5.428h-8.202V68.53h8.202v-1.526H211.5v-4.352h5.516v-1.526H211.5v-4.072h6.598v-1.526zm2.166 0h5.129c.126 0 .276.006.45.019.175.006.343.024.505.054.703.108 1.292.349 1.767.722.48.373.841.846 1.081 1.418a4.77 4.77 0 01.361 1.887 4.71 4.71 0 01-.37 1.887 3.542 3.542 0 01-1.081 1.418c-.475.373-1.061.614-1.758.722-.162.024-.33.042-.505.054a6.612 6.612 0 01-.45.018h-3.524v4.804h-1.605V55.527zm1.605 6.673h3.47c.114 0 .243-.005.387-.018.15-.012.292-.033.424-.063.414-.096.751-.27 1.009-.524.265-.258.457-.56.577-.903.12-.349.18-.704.18-1.065s-.06-.713-.18-1.056a2.306 2.306 0 00-.577-.913c-.258-.258-.595-.433-1.009-.523a1.894 1.894 0 00-.424-.063 4.712 4.712 0 00-.387-.018h-3.47V62.2zm11.531 5.743c.902.572 1.998.858 3.29.858 1.502 0 2.737-.382 3.705-1.147.973-.77 1.643-1.8 2.009-3.088l-1.631-.433c-.264.963-.736 1.727-1.415 2.293-.679.56-1.568.84-2.668.84-.967 0-1.775-.22-2.424-.659-.649-.445-1.136-1.06-1.46-1.842-.325-.789-.484-1.7-.478-2.736.006-1.041.171-1.953.496-2.736.324-.789.808-1.403 1.451-1.842.643-.44 1.448-.66 2.415-.66 1.1 0 1.989.28 2.668.84.679.56 1.151 1.325 1.415 2.294l1.631-.433c-.366-1.295-1.036-2.324-2.009-3.089-.968-.764-2.203-1.146-3.705-1.146-1.292 0-2.388.286-3.29.858-.901.571-1.589 1.366-2.064 2.383-.468 1.018-.703 2.194-.703 3.53 0 1.337.235 2.514.703 3.531.475 1.018 1.163 1.813 2.064 2.384zm20.995.587h-1.623V58.362l-6.769 10.167h-1.622V55.527h1.622v10.158l6.769-10.159h1.623V68.53zm5.864-11.476v11.476h1.604V57.053h4.425v-1.526h-10.455v1.526h4.426zm7.464-1.526h8.202v1.526h-6.597v4.072h5.516v1.526h-5.516v4.352h6.597v1.526h-8.202V55.527zm13.713 1.526v11.476h1.604V57.053h4.426v-1.526H277.01v1.526h4.426z" fill="#000"/></svg>